<svg id="svg" version="1.1" xmlns="http://www.w3.org/2000/svg" xmlns:xlink="http://www.w3.org/1999/xlink" width="400" height="400" viewBox="0, 0, 400,400"><g id="svgg"><path id="path0" d="M50.000 30.781 C 49.670 30.965,48.410 31.334,47.200 31.600 C 45.990 31.867,44.010 32.535,42.800 33.085 C 41.590 33.634,40.150 34.264,39.600 34.484 C 36.549 35.705,31.542 38.579,31.267 39.267 C 31.193 39.450,30.910 39.600,30.638 39.600 C 28.994 39.600,16.400 54.976,16.400 56.982 C 16.400 57.285,16.265 57.593,16.100 57.667 C 15.689 57.849,14.400 60.690,14.400 61.414 C 14.400 61.736,14.220 62.000,14.000 62.000 C 13.780 62.000,13.599 62.315,13.598 62.700 C 13.597 63.085,13.147 64.286,12.598 65.368 C 12.049 66.450,11.600 67.570,11.600 67.856 C 11.600 68.142,11.240 69.017,10.800 69.800 C 10.360 70.583,10.000 71.568,10.000 71.989 C 10.000 72.409,9.820 72.864,9.600 73.000 C 9.380 73.136,9.199 73.552,9.198 73.924 C 9.196 74.296,8.926 75.116,8.598 75.746 C 8.269 76.376,8.000 77.310,8.000 77.822 C 8.000 78.334,7.820 78.864,7.600 79.000 C 7.380 79.136,7.200 79.687,7.200 80.224 C 7.200 80.761,7.022 81.200,6.805 81.200 C 6.587 81.200,6.294 81.924,6.152 82.809 C 6.011 83.694,5.739 84.514,5.547 84.632 C 5.356 84.751,5.200 85.199,5.200 85.629 C 5.200 86.059,5.041 86.723,4.847 87.105 C 3.697 89.365,2.400 93.280,2.400 94.490 C 2.400 95.074,2.220 95.664,2.000 95.800 C 1.780 95.936,1.600 96.746,1.600 97.600 C 1.600 98.454,1.420 99.264,1.200 99.400 C 0.665 99.730,0.665 111.470,1.200 111.800 C 1.420 111.936,1.600 112.746,1.600 113.600 C 1.600 114.454,1.780 115.264,2.000 115.400 C 2.220 115.536,2.400 115.998,2.400 116.426 C 2.400 117.370,6.380 125.200,6.860 125.200 C 7.047 125.200,7.200 125.385,7.200 125.612 C 7.200 126.759,15.836 135.600,16.958 135.600 C 17.095 135.600,17.718 136.056,18.343 136.612 C 19.715 137.835,22.310 139.200,23.261 139.200 C 23.641 139.200,24.064 139.380,24.200 139.600 C 24.336 139.820,24.851 140.000,25.344 140.000 C 25.837 140.000,26.426 140.186,26.654 140.414 C 27.925 141.685,32.649 137.137,35.810 131.600 C 37.781 128.147,42.650 120.573,44.572 117.970 C 46.270 115.671,45.769 115.200,41.630 115.200 C 28.919 115.200,25.781 109.264,30.668 94.468 C 40.391 65.038,45.633 58.082,58.400 57.670 C 65.947 57.427,70.140 58.688,74.969 62.654 C 78.885 65.871,79.974 68.424,81.002 76.800 C 81.456 80.494,81.599 80.434,93.807 71.400 C 96.482 69.420,99.501 67.225,100.515 66.523 C 101.529 65.821,102.849 64.471,103.448 63.523 C 104.047 62.575,105.001 61.396,105.569 60.902 C 106.384 60.192,106.457 60.004,105.919 60.002 C 105.262 60.000,104.707 59.052,103.574 56.000 C 103.289 55.230,102.458 53.652,101.727 52.492 C 100.997 51.333,100.400 50.251,100.400 50.088 C 100.400 49.925,99.950 49.307,99.400 48.713 C 98.850 48.120,98.400 47.485,98.400 47.302 C 98.400 46.889,94.685 43.200,94.270 43.200 C 94.103 43.200,93.569 42.821,93.083 42.357 C 92.597 41.893,91.570 41.107,90.800 40.609 C 90.030 40.111,89.057 39.320,88.638 38.852 C 88.219 38.383,87.648 38.000,87.369 38.000 C 87.090 38.000,86.353 37.581,85.731 37.068 C 84.706 36.223,80.301 33.968,77.487 32.848 C 75.833 32.190,70.812 31.201,69.124 31.200 C 68.312 31.200,67.536 31.020,67.400 30.800 C 67.098 30.311,50.876 30.293,50.000 30.781 M199.800 35.600 C 199.664 35.820,199.823 36.000,200.153 36.000 C 200.483 36.000,200.864 35.820,201.000 35.600 C 201.136 35.380,200.977 35.200,200.647 35.200 C 200.317 35.200,199.936 35.380,199.800 35.600 M216.705 35.883 C 217.202 35.979,217.922 35.975,218.305 35.875 C 218.687 35.775,218.280 35.696,217.400 35.701 C 216.520 35.705,216.207 35.787,216.705 35.883 M319.400 36.400 C 319.264 36.620,318.648 36.800,318.032 36.800 C 316.037 36.800,308.598 40.731,308.067 42.065 C 307.993 42.249,307.698 42.400,307.411 42.400 C 306.756 42.400,297.201 51.869,297.198 52.521 C 297.197 52.784,296.771 53.531,296.251 54.181 L 295.306 55.362 296.305 57.181 C 297.795 59.894,298.152 60.197,302.758 62.651 C 305.091 63.894,309.203 66.236,311.896 67.855 C 317.661 71.323,317.191 71.239,318.856 69.100 C 323.227 63.486,325.155 62.832,332.111 64.604 C 343.850 67.594,349.785 70.845,357.616 78.574 C 364.528 85.395,364.862 86.169,365.469 96.779 C 365.759 101.838,365.500 102.584,362.194 106.200 C 359.658 108.975,359.622 109.133,361.132 110.886 C 362.999 113.052,367.751 119.570,370.113 123.204 C 372.689 127.168,373.154 127.621,375.699 128.640 C 376.743 129.058,377.598 129.519,377.599 129.665 C 377.601 130.023,380.997 126.598,385.500 121.696 C 387.535 119.481,389.200 117.473,389.200 117.234 C 389.200 116.995,389.354 116.800,389.543 116.800 C 390.164 116.800,392.000 112.755,392.000 111.387 C 392.000 110.650,392.180 109.936,392.400 109.800 C 392.620 109.664,392.800 108.944,392.800 108.200 C 392.800 107.456,392.980 106.736,393.200 106.600 C 393.705 106.288,393.730 99.493,393.228 98.980 C 393.024 98.771,392.766 97.070,392.656 95.200 C 391.950 83.228,390.647 74.800,389.503 74.800 C 389.336 74.800,389.200 74.402,389.200 73.917 C 389.200 73.127,384.714 66.798,383.920 66.467 C 383.744 66.393,383.600 66.100,383.600 65.815 C 383.600 65.103,378.794 60.258,376.904 59.066 C 376.058 58.531,374.923 57.515,374.382 56.808 C 372.098 53.817,371.497 53.215,369.793 52.217 C 368.807 51.639,368.000 51.021,368.000 50.843 C 368.000 50.148,356.579 44.000,355.289 44.000 C 355.033 44.000,354.183 43.640,353.400 43.200 C 352.617 42.760,351.705 42.400,351.375 42.400 C 351.044 42.400,349.885 41.950,348.800 41.400 C 347.715 40.850,346.471 40.400,346.037 40.400 C 345.603 40.400,345.148 40.239,345.026 40.042 C 344.905 39.845,344.129 39.592,343.303 39.479 C 341.873 39.283,336.806 38.010,334.172 37.185 C 333.496 36.973,332.472 36.800,331.895 36.800 C 331.319 36.800,330.736 36.620,330.600 36.400 C 330.455 36.166,328.137 36.000,325.000 36.000 C 321.863 36.000,319.545 36.166,319.400 36.400 M230.800 37.200 C 230.800 37.420,231.070 37.600,231.400 37.600 C 231.730 37.600,232.000 37.420,232.000 37.200 C 232.000 36.980,231.730 36.800,231.400 36.800 C 231.070 36.800,230.800 36.980,230.800 37.200 M259.800 42.800 C 259.936 43.020,260.317 43.200,260.647 43.200 C 260.977 43.200,261.136 43.020,261.000 42.800 C 260.864 42.580,260.483 42.400,260.153 42.400 C 259.823 42.400,259.664 42.580,259.800 42.800 M266.176 44.605 C 266.604 44.932,267.189 45.200,267.476 45.200 C 268.368 45.200,268.057 44.897,266.700 44.445 C 265.511 44.048,265.466 44.062,266.176 44.605 M110.600 57.600 C 110.464 57.820,110.623 58.000,110.953 58.000 C 111.283 58.000,111.664 57.820,111.800 57.600 C 111.936 57.380,111.777 57.200,111.447 57.200 C 111.117 57.200,110.736 57.380,110.600 57.600 M211.242 71.121 C 210.635 72.255,211.429 74.629,214.133 79.760 C 215.363 82.094,217.112 86.298,218.020 89.102 C 219.739 94.409,221.079 97.888,223.204 102.557 C 223.895 104.073,225.076 108.033,225.830 111.357 C 229.563 127.815,238.396 135.029,250.092 131.173 C 255.559 129.371,268.337 117.116,278.010 104.400 C 279.934 101.870,282.541 98.630,283.803 97.200 C 289.313 90.955,289.365 91.113,280.384 86.823 C 265.735 79.826,266.453 79.720,258.698 90.026 C 254.830 95.168,249.984 100.400,249.090 100.400 C 248.239 100.400,247.793 99.731,246.690 96.800 C 246.151 95.370,245.049 92.885,244.240 91.279 C 243.430 89.672,241.890 85.754,240.817 82.573 C 237.404 72.450,237.436 72.471,223.600 71.242 C 212.443 70.251,211.712 70.244,211.242 71.121 M175.200 72.786 C 167.430 74.101,155.424 77.050,153.236 78.181 C 150.550 79.570,147.150 84.974,144.794 91.600 C 142.928 96.848,141.874 96.301,139.786 89.000 C 138.031 82.864,136.767 82.980,123.049 90.544 C 116.812 93.984,116.724 94.117,117.949 98.321 C 121.015 108.847,126.492 116.485,134.552 121.474 C 151.048 131.684,159.055 127.616,165.416 105.793 C 167.596 98.313,168.905 95.321,172.499 89.600 C 176.736 82.854,182.000 73.504,182.000 72.721 C 182.000 71.811,180.894 71.822,175.200 72.786 M24.199 146.686 C 23.811 147.519,23.331 148.515,23.133 148.900 C 22.934 149.285,22.924 149.600,23.111 149.600 C 23.491 149.600,25.332 145.599,25.071 145.338 C 24.980 145.246,24.587 145.853,24.199 146.686 M130.066 152.430 C 121.818 156.552,120.103 167.703,126.792 173.717 C 135.471 181.520,148.956 174.522,147.891 162.768 C 147.097 154.017,137.744 148.593,130.066 152.430 M267.337 155.623 C 257.858 157.463,253.997 169.170,260.668 175.841 C 265.682 180.855,274.693 180.693,278.926 175.512 C 285.883 166.995,278.046 153.544,267.337 155.623 M14.692 175.042 C 14.531 175.202,14.400 175.609,14.400 175.947 C 14.400 176.397,14.518 176.442,14.845 176.115 C 15.090 175.870,15.221 175.463,15.137 175.210 C 15.052 174.957,14.852 174.881,14.692 175.042 M397.606 186.100 C 397.620 187.242,398.388 187.826,398.394 186.700 C 398.397 186.095,398.220 185.600,398.000 185.600 C 397.780 185.600,397.603 185.825,397.606 186.100 M12.249 187.930 C 12.072 188.442,12.033 188.967,12.163 189.097 C 12.578 189.511,12.870 188.900,12.718 187.934 L 12.571 187.000 12.249 187.930 M209.200 194.130 C 209.090 194.241,205.220 194.428,200.600 194.548 C 195.074 194.690,190.558 195.035,187.400 195.555 C 184.760 195.991,180.890 196.558,178.800 196.816 C 164.845 198.539,159.070 207.499,163.213 221.000 C 163.619 222.320,164.338 224.750,164.811 226.400 C 166.515 232.334,169.240 235.972,173.865 238.488 C 176.194 239.755,188.435 243.397,191.763 243.813 C 194.775 244.189,195.200 244.678,195.200 247.769 C 195.200 252.958,194.079 254.003,188.520 253.995 C 184.069 253.989,181.467 253.295,177.963 251.178 C 171.627 247.349,167.482 252.702,173.019 257.563 C 178.048 261.978,190.650 263.641,196.233 260.626 C 199.492 258.866,199.139 258.844,201.899 260.982 C 210.765 267.849,232.407 264.089,234.782 255.268 C 236.266 249.757,231.126 248.262,226.805 252.948 C 222.402 257.722,208.409 257.609,203.559 252.759 C 202.952 252.152,202.800 251.414,202.800 249.076 C 202.800 245.021,203.042 244.779,207.502 244.367 C 213.008 243.859,225.697 240.440,229.315 238.489 C 232.829 236.594,235.246 233.319,236.620 228.588 C 237.002 227.275,237.806 225.210,238.407 224.000 C 239.538 221.721,242.400 209.276,242.400 206.635 C 242.400 201.297,238.560 197.396,232.074 196.145 C 230.383 195.819,227.920 195.266,226.600 194.916 C 224.295 194.306,209.683 193.646,209.200 194.130 M399.212 197.800 C 399.212 198.240,399.387 198.870,399.600 199.200 C 399.921 199.697,399.988 199.662,399.988 199.000 C 399.988 198.560,399.813 197.930,399.600 197.600 C 399.279 197.103,399.212 197.138,399.212 197.800 M50.492 199.642 C 45.282 200.248,45.190 200.421,45.228 209.526 C 45.288 223.476,45.314 223.542,50.429 222.861 C 56.380 222.069,66.415 221.848,67.600 222.483 C 71.970 224.825,63.189 232.018,52.954 234.479 C 48.980 235.435,47.999 236.046,48.001 237.562 C 48.005 240.356,53.019 256.585,54.089 257.263 C 57.523 259.443,76.183 251.066,83.831 243.912 C 96.301 232.246,94.854 207.559,81.334 201.325 C 76.938 199.298,60.951 198.426,50.492 199.642 M333.000 204.587 C 314.070 208.236,306.189 223.831,316.363 237.508 C 323.793 247.496,328.741 251.037,339.625 254.151 C 352.696 257.890,356.067 258.088,357.482 255.200 C 358.584 252.948,361.384 243.696,362.303 239.263 L 362.996 235.926 362.053 235.163 C 361.491 234.707,360.490 234.400,359.570 234.400 C 352.414 234.400,338.677 229.630,339.986 227.600 C 340.571 226.694,351.256 226.898,356.870 227.922 C 364.689 229.348,365.175 228.493,365.193 213.294 L 365.200 207.188 363.951 206.429 C 360.613 204.398,340.261 203.188,333.000 204.587 M10.267 209.467 C 9.843 209.891,9.958 214.327,10.400 214.600 C 10.652 214.756,10.800 213.804,10.800 212.024 C 10.800 209.185,10.757 208.977,10.267 209.467 M218.400 213.126 C 222.072 213.391,222.204 213.434,222.314 214.400 C 222.429 215.406,219.876 221.127,218.367 223.246 C 215.295 227.560,192.702 227.716,184.548 223.480 C 183.200 222.779,183.182 222.748,181.776 218.684 C 180.353 214.571,180.031 214.824,188.200 213.637 C 191.280 213.189,194.340 212.743,195.000 212.645 C 196.532 212.419,213.401 212.765,218.400 213.126 M399.473 223.353 C 399.323 223.745,399.211 224.366,399.225 224.733 C 399.242 225.175,399.381 225.074,399.637 224.434 C 399.849 223.903,399.961 223.282,399.885 223.054 C 399.809 222.827,399.624 222.961,399.473 223.353 M15.600 251.776 C 15.600 252.093,15.780 252.464,16.000 252.600 C 16.220 252.736,16.400 252.477,16.400 252.024 C 16.400 251.571,16.220 251.200,16.000 251.200 C 15.780 251.200,15.600 251.459,15.600 251.776 M76.200 261.592 C 71.317 262.039,65.029 263.578,59.500 265.679 C 57.478 266.448,57.878 267.653,63.070 276.422 C 68.308 285.268,69.597 286.483,72.798 285.594 C 74.597 285.094,76.800 285.089,76.800 285.584 C 76.800 286.041,76.281 286.503,74.400 287.720 C 71.692 289.472,72.540 291.190,80.361 299.800 C 87.568 307.734,86.942 307.618,94.357 302.391 C 105.696 294.399,108.402 285.580,102.924 274.478 C 98.045 264.587,89.338 260.389,76.200 261.592 M391.488 262.133 C 391.042 263.266,391.115 263.845,391.638 263.322 C 391.878 263.082,392.008 262.551,391.926 262.142 C 391.782 261.426,391.766 261.426,391.488 262.133 M345.400 262.671 C 344.740 262.749,343.069 262.997,341.686 263.221 C 340.304 263.445,336.434 263.798,333.086 264.005 C 309.300 265.476,296.018 277.680,300.203 294.216 C 302.354 302.714,309.902 310.128,317.002 310.717 L 319.173 310.897 324.149 306.018 C 329.393 300.877,335.715 293.682,336.909 291.498 C 337.816 289.837,336.840 288.827,334.256 288.753 C 329.092 288.605,329.648 287.468,335.079 287.069 C 339.221 286.765,340.711 286.137,342.482 283.948 C 345.882 279.746,353.349 266.258,353.129 264.715 C 352.919 263.237,349.115 262.231,345.400 262.671 M35.464 298.000 C 35.854 298.660,36.326 299.200,36.513 299.200 C 36.701 299.200,36.470 298.660,36.000 298.000 C 35.530 297.340,35.058 296.800,34.950 296.800 C 34.843 296.800,35.074 297.340,35.464 298.000 M44.028 310.200 C 44.026 310.708,45.562 312.571,45.792 312.341 C 45.887 312.246,45.529 311.636,44.997 310.984 C 44.464 310.333,44.028 309.980,44.028 310.200 M358.633 319.857 C 358.252 320.850,358.672 320.986,359.182 320.034 C 359.427 319.575,359.461 319.200,359.257 319.200 C 359.053 319.200,358.772 319.496,358.633 319.857 M57.200 325.861 C 57.200 326.081,57.650 326.683,58.200 327.200 C 58.750 327.717,59.200 327.959,59.200 327.739 C 59.200 327.519,58.750 326.917,58.200 326.400 C 57.650 325.883,57.200 325.641,57.200 325.861 M352.200 326.744 C 350.774 328.023,346.170 332.996,347.162 332.186 C 348.891 330.775,353.550 325.981,353.162 326.013 C 353.073 326.021,352.640 326.349,352.200 326.744 M340.962 337.658 C 340.204 338.512,340.205 338.514,341.100 338.044 C 341.595 337.784,342.000 337.398,342.000 337.186 C 342.000 336.618,341.809 336.705,340.962 337.658 M299.200 365.271 C 298.542 365.548,298.384 365.760,298.739 365.892 C 299.036 366.002,299.569 365.802,299.925 365.446 C 300.664 364.708,300.585 364.689,299.200 365.271 M296.000 366.800 C 295.230 367.222,294.744 367.574,294.920 367.583 C 295.344 367.605,297.600 366.432,297.600 366.190 C 297.600 365.928,297.577 365.937,296.000 366.800 M121.024 370.187 C 121.451 370.510,122.070 370.774,122.400 370.773 C 122.748 370.772,122.580 370.532,122.000 370.200 C 120.685 369.448,120.036 369.440,121.024 370.187 M207.100 387.493 C 208.035 387.577,209.565 387.577,210.500 387.493 C 211.435 387.409,210.670 387.340,208.800 387.340 C 206.930 387.340,206.165 387.409,207.100 387.493 " stroke="none" fill="#0b0807" fill-rule="evenodd"></path><path id="path1" d="M55.674 59.238 C 45.946 60.899,41.471 67.553,32.670 93.447 C 27.594 108.381,29.314 112.824,40.476 113.617 C 43.397 113.825,44.720 114.110,45.844 114.773 C 47.996 116.043,48.596 115.692,52.400 110.940 C 56.728 105.533,66.837 95.080,72.121 90.549 C 80.578 83.296,81.026 82.639,79.822 79.250 C 79.480 78.287,79.200 76.631,79.200 75.569 C 79.200 64.641,68.309 57.081,55.674 59.238 M324.175 65.950 C 319.609 68.735,318.519 72.348,321.539 74.694 C 322.606 75.522,323.750 76.666,324.083 77.235 C 324.416 77.804,327.008 80.129,329.844 82.402 C 336.361 87.626,340.182 91.006,346.116 96.797 C 348.709 99.329,351.319 101.612,351.916 101.870 C 352.512 102.129,354.074 103.434,355.387 104.770 C 358.249 107.682,358.185 107.675,360.768 105.353 C 364.200 102.267,364.483 101.216,363.783 94.128 C 362.956 85.746,363.236 86.286,356.112 79.322 C 348.291 71.677,344.825 69.755,332.868 66.436 C 327.729 65.010,325.885 64.907,324.175 65.950 M197.400 70.023 C 185.228 70.414,185.688 70.184,181.020 78.200 C 178.490 82.544,175.113 88.180,172.392 92.600 C 169.943 96.579,169.004 98.877,166.937 105.956 C 159.775 130.481,148.514 134.675,129.457 119.916 C 124.645 116.189,119.306 107.807,117.024 100.400 C 115.063 94.031,114.422 93.936,107.000 98.924 C 74.360 120.857,51.157 156.451,45.836 192.752 C 44.992 198.510,45.019 198.548,49.729 198.128 C 56.092 197.560,75.911 197.720,78.200 198.357 C 93.163 202.528,98.856 222.717,89.717 239.197 C 85.721 246.403,71.317 255.715,60.000 258.409 C 54.371 259.749,53.685 260.475,55.668 262.995 C 56.760 264.384,58.723 264.252,64.400 262.406 C 84.673 255.817,100.128 261.193,105.780 276.800 C 109.674 287.554,106.080 296.467,94.779 304.075 C 87.898 308.707,87.901 308.687,93.721 313.515 C 130.347 343.899,179.453 357.968,227.400 351.814 C 258.337 347.843,286.540 336.563,310.000 318.777 C 317.134 313.368,317.218 313.168,313.102 311.442 C 305.478 308.247,300.754 302.731,298.742 294.673 C 294.279 276.809,308.015 263.857,332.961 262.409 C 336.503 262.203,340.834 261.736,342.586 261.370 C 345.695 260.722,348.318 260.738,353.294 261.437 C 355.036 261.681,355.217 261.626,355.552 260.751 C 356.073 259.392,355.888 259.304,350.634 258.406 C 345.714 257.565,333.795 254.254,330.604 252.843 C 323.227 249.580,312.299 236.787,310.766 229.620 C 307.993 216.658,317.239 205.735,333.340 202.954 C 338.867 201.999,354.686 202.349,360.181 203.547 C 365.751 204.762,365.831 204.676,365.213 198.157 C 361.275 156.594,335.446 118.171,295.107 93.864 C 290.642 91.173,290.525 91.196,287.147 95.400 C 285.909 96.940,284.407 98.740,283.809 99.400 C 283.210 100.060,281.189 102.637,279.317 105.126 C 275.755 109.865,261.302 125.688,258.327 128.106 C 243.755 139.951,228.390 132.572,224.382 111.804 C 223.493 107.197,222.445 104.059,220.504 100.195 C 219.843 98.878,218.631 95.730,217.812 93.200 C 215.443 85.888,214.518 83.587,212.578 80.188 C 211.578 78.435,210.291 75.650,209.719 74.000 C 208.125 69.405,208.895 69.654,197.400 70.023 M340.280 73.175 C 347.272 75.388,353.137 79.563,355.168 83.774 C 357.497 88.600,357.794 91.564,356.343 95.485 C 354.035 101.725,353.616 101.693,346.475 94.734 C 340.464 88.876,336.233 85.170,329.731 80.067 C 324.876 76.256,324.774 75.714,328.445 73.209 C 331.750 70.954,333.248 70.949,340.280 73.175 M66.792 73.225 C 71.561 74.546,77.705 77.868,78.607 79.614 C 79.581 81.497,79.412 81.744,73.935 86.425 C 64.779 94.252,56.736 102.444,50.300 110.500 C 47.260 114.304,46.721 114.558,44.522 113.218 C 38.640 109.631,39.697 92.010,46.322 83.200 C 53.594 73.529,58.777 71.004,66.792 73.225 M140.788 150.916 C 148.531 153.773,151.695 164.522,146.995 172.002 C 138.984 184.750,118.376 176.496,121.763 161.896 C 124.028 152.132,131.848 147.618,140.788 150.916 M274.696 155.241 C 281.524 158.168,284.849 166.983,281.679 173.757 C 277.945 181.735,267.141 183.345,260.059 176.977 C 249.189 167.204,261.154 149.436,274.696 155.241 M224.800 193.409 C 226.230 193.735,229.020 194.278,231.000 194.617 C 239.476 196.068,243.597 199.959,243.601 206.515 C 243.603 209.886,240.900 221.459,239.531 223.937 C 238.882 225.112,237.808 227.614,237.144 229.496 C 235.146 235.155,232.519 238.258,228.293 239.951 C 224.822 241.342,213.614 244.412,210.405 244.851 C 203.185 245.840,203.851 245.562,203.452 247.745 C 202.879 250.882,203.542 252.353,206.272 254.009 L 208.566 255.400 214.694 255.536 C 222.315 255.705,223.946 255.249,226.960 252.103 C 230.855 248.038,235.600 248.966,235.600 253.793 C 235.600 263.951,210.573 269.162,200.896 261.019 C 199.357 259.724,199.099 259.738,196.200 261.270 C 190.942 264.049,179.294 262.726,173.706 258.716 C 166.328 253.421,170.662 246.125,178.406 250.804 C 184.005 254.186,193.213 254.709,194.169 251.698 C 194.490 250.685,194.591 245.658,194.296 245.363 C 194.161 245.227,192.104 244.707,189.725 244.206 C 171.690 240.411,166.528 236.632,163.454 224.974 C 162.928 222.980,162.161 220.730,161.749 219.974 C 160.610 217.885,160.736 209.976,161.964 206.433 C 164.428 199.324,168.380 196.908,180.000 195.407 C 182.530 195.080,186.220 194.533,188.200 194.192 C 190.246 193.839,195.598 193.469,200.600 193.336 C 205.440 193.207,209.475 193.033,209.567 192.951 C 210.060 192.505,222.471 192.878,224.800 193.409 M161.277 221.700 C 161.624 221.975,162.388 223.910,162.975 226.000 C 166.140 237.268,171.683 241.228,189.512 244.959 L 193.800 245.857 193.917 248.724 C 194.034 251.580,194.030 251.594,192.717 252.422 C 189.945 254.172,182.471 252.983,178.131 250.101 C 174.431 247.645,170.854 248.326,169.722 251.702 C 168.444 255.516,173.097 260.326,179.600 261.912 C 184.229 263.041,185.422 263.200,189.247 263.200 C 193.133 263.200,193.486 263.128,196.227 261.773 L 199.115 260.347 201.725 262.134 C 212.562 269.553,236.000 263.868,236.000 253.820 C 236.000 248.322,230.476 247.096,226.664 251.748 C 224.421 254.485,222.115 255.200,215.531 255.200 C 206.988 255.200,204.000 253.597,204.000 249.015 C 204.000 246.193,204.192 246.023,207.400 245.999 C 211.613 245.968,226.023 242.037,230.736 239.632 C 233.956 237.990,236.650 234.026,238.210 228.634 C 240.519 220.658,247.493 223.654,259.799 237.908 C 265.526 244.542,268.800 254.554,268.800 265.435 C 268.800 276.236,265.672 283.049,257.126 290.866 C 254.880 292.920,251.475 296.067,249.559 297.859 C 244.500 302.593,240.722 304.422,227.781 308.406 C 210.422 313.749,182.840 313.707,169.200 308.315 C 155.837 303.033,143.224 291.078,136.224 277.057 C 129.533 263.656,134.385 243.377,147.731 228.963 C 152.550 223.759,159.306 220.136,161.277 221.700 " stroke="none" fill="#d39a53" fill-rule="evenodd"></path><path id="path2" d="M332.119 71.607 C 329.209 72.025,325.364 75.166,325.892 76.694 C 325.986 76.966,327.714 78.484,329.731 80.067 C 336.233 85.170,340.464 88.876,346.475 94.734 C 353.616 101.693,354.035 101.725,356.343 95.485 C 359.684 86.457,353.025 77.208,340.280 73.175 C 334.912 71.476,334.110 71.322,332.119 71.607 M58.000 72.949 C 54.579 74.084,50.454 77.705,46.322 83.200 C 39.697 92.010,38.640 109.631,44.522 113.218 C 46.721 114.558,47.260 114.304,50.300 110.500 C 56.736 102.444,64.779 94.252,73.935 86.425 C 76.831 83.950,79.200 81.663,79.200 81.343 C 79.200 79.967,77.883 78.394,75.707 77.172 C 68.067 72.880,62.329 71.512,58.000 72.949 M157.023 222.196 C 149.936 225.109,143.986 231.901,137.900 244.022 C 134.296 251.200,133.211 256.049,133.203 265.016 C 133.190 279.962,150.674 300.993,169.200 308.315 C 191.358 317.074,235.106 311.381,249.559 297.859 C 251.475 296.067,254.880 292.920,257.126 290.866 C 265.672 283.049,268.800 276.236,268.800 265.435 C 268.800 254.554,265.526 244.542,259.799 237.908 C 247.493 223.654,240.519 220.658,238.210 228.634 C 236.650 234.026,233.956 237.990,230.736 239.632 C 226.023 242.037,211.613 245.968,207.400 245.999 C 204.192 246.023,204.000 246.193,204.000 249.015 C 204.000 253.597,206.988 255.200,215.531 255.200 C 222.115 255.200,224.421 254.485,226.664 251.748 C 230.476 247.096,236.000 248.322,236.000 253.820 C 236.000 263.868,212.562 269.553,201.725 262.134 L 199.115 260.347 196.227 261.773 C 193.486 263.128,193.133 263.200,189.247 263.200 C 185.422 263.200,184.229 263.041,179.600 261.912 C 173.097 260.326,168.444 255.516,169.722 251.702 C 170.854 248.326,174.431 247.645,178.131 250.101 C 182.471 252.983,189.945 254.172,192.717 252.422 C 194.030 251.594,194.034 251.580,193.917 248.724 L 193.800 245.857 189.512 244.959 C 171.683 241.228,166.140 237.268,162.975 226.000 C 161.513 220.795,161.090 220.524,157.023 222.196 " stroke="none" fill="#f9f7ee" fill-rule="evenodd"></path><path id="path3" d="M201.200 35.550 C 201.200 35.742,199.553 35.806,197.540 35.691 C 194.858 35.538,193.955 35.604,194.162 35.938 C 194.366 36.268,193.756 36.340,191.958 36.201 C 190.437 36.082,189.265 36.180,188.937 36.453 C 188.542 36.780,188.400 36.779,188.400 36.449 C 188.400 35.799,186.525 35.896,186.271 36.560 C 186.134 36.915,185.533 37.096,184.628 37.053 C 183.843 37.016,183.200 37.131,183.200 37.307 C 183.200 37.484,182.852 37.442,182.426 37.214 C 181.335 36.630,179.576 36.652,180.400 37.240 C 180.854 37.563,180.670 37.610,179.643 37.432 C 178.869 37.298,178.052 37.391,177.743 37.648 C 177.444 37.895,177.200 37.964,177.200 37.800 C 177.200 37.636,176.930 37.726,176.600 38.000 C 176.121 38.397,176.000 38.397,176.000 38.000 C 176.000 37.614,175.857 37.621,175.367 38.028 C 174.643 38.628,173.200 38.832,173.200 38.333 C 173.200 37.773,171.695 37.963,171.054 38.603 C 170.680 38.977,170.356 39.053,170.202 38.803 C 170.065 38.581,169.761 38.400,169.527 38.400 C 169.228 38.400,169.228 38.552,169.529 38.915 C 169.856 39.308,169.726 39.448,168.978 39.510 C 168.440 39.555,168.000 39.413,168.000 39.196 C 168.000 38.486,166.839 38.780,166.400 39.600 C 165.960 40.423,164.800 40.713,164.800 40.000 C 164.800 39.374,162.555 39.531,162.004 40.196 C 161.732 40.523,161.365 40.702,161.189 40.593 C 161.013 40.484,160.777 40.621,160.666 40.898 C 160.505 41.297,160.457 41.297,160.432 40.900 C 160.384 40.154,159.325 40.296,159.021 41.089 C 158.803 41.658,158.697 41.680,158.409 41.215 C 158.138 40.777,157.935 40.756,157.494 41.122 C 157.182 41.381,156.826 41.493,156.704 41.370 C 156.356 41.023,153.150 41.995,153.386 42.377 C 153.501 42.563,153.296 42.831,152.930 42.972 C 152.564 43.112,152.138 43.023,151.984 42.774 C 151.644 42.224,150.167 42.478,150.281 43.067 C 150.326 43.297,149.886 43.434,149.305 43.370 C 148.674 43.301,148.043 43.525,147.737 43.927 C 147.415 44.351,147.221 44.415,147.213 44.100 C 147.206 43.825,147.009 43.600,146.776 43.600 C 146.543 43.600,146.454 43.763,146.577 43.963 C 146.700 44.162,146.451 44.234,146.023 44.122 C 145.596 44.010,144.668 44.207,143.961 44.559 C 143.255 44.912,142.367 45.200,141.988 45.200 C 141.608 45.200,141.089 45.451,140.834 45.759 C 140.579 46.066,140.024 46.227,139.600 46.116 C 139.175 46.005,138.529 46.213,138.163 46.580 C 137.797 46.946,137.241 47.148,136.928 47.028 C 136.612 46.907,136.467 46.986,136.603 47.205 C 136.843 47.593,136.487 47.712,135.100 47.707 C 134.715 47.705,134.400 47.855,134.400 48.040 C 134.400 48.224,134.107 48.262,133.749 48.125 C 133.334 47.966,132.813 48.224,132.314 48.838 C 131.883 49.367,131.647 49.575,131.789 49.300 C 131.944 48.999,131.788 48.800,131.397 48.800 C 130.407 48.800,129.200 49.561,129.200 50.185 C 129.200 50.570,128.832 50.695,128.007 50.591 C 127.258 50.496,126.848 50.610,126.907 50.896 C 126.958 51.147,126.664 51.425,126.253 51.515 C 125.785 51.616,125.607 51.513,125.776 51.238 C 125.925 50.997,125.866 50.800,125.643 50.800 C 125.421 50.800,125.096 51.044,124.920 51.342 C 124.492 52.066,122.873 52.893,122.425 52.616 C 121.832 52.249,120.000 53.136,120.000 53.790 C 120.000 54.126,119.809 54.400,119.576 54.400 C 119.343 54.400,119.278 54.197,119.432 53.948 C 119.603 53.671,119.496 53.574,119.156 53.698 C 118.850 53.809,118.650 54.116,118.710 54.380 C 118.781 54.689,118.539 54.771,118.034 54.611 C 117.479 54.435,117.114 54.614,116.787 55.224 C 116.486 55.787,116.190 55.950,115.933 55.693 C 115.437 55.197,112.886 56.399,111.871 57.609 C 111.448 58.112,110.843 58.400,110.433 58.293 C 110.022 58.185,109.530 58.421,109.259 58.854 C 109.003 59.264,108.604 59.600,108.373 59.600 C 108.142 59.600,108.064 59.420,108.200 59.200 C 108.672 58.437,108.021 58.806,106.813 59.987 C 106.145 60.640,105.237 62.125,104.795 63.287 C 103.548 66.565,102.795 67.222,88.526 77.500 C 82.635 81.743,80.842 82.668,80.768 81.500 C 80.751 81.225,80.548 81.540,80.316 82.200 C 79.738 83.851,79.320 84.285,73.385 89.411 C 67.037 94.894,57.009 105.182,52.400 110.940 C 50.530 113.276,48.607 115.297,48.127 115.431 C 47.646 115.564,47.337 115.893,47.440 116.161 C 47.543 116.429,47.144 117.357,46.553 118.224 C 41.433 125.733,38.592 130.225,36.197 134.600 C 34.553 137.601,33.342 138.679,30.481 139.686 C 28.932 140.231,27.811 140.871,27.703 141.272 C 27.591 141.685,27.283 141.853,26.905 141.708 C 26.407 141.517,26.368 141.614,26.703 142.213 C 27.151 143.013,26.222 144.985,25.584 144.590 C 25.403 144.478,25.142 144.570,25.004 144.793 C 24.866 145.017,24.943 145.200,25.176 145.200 C 25.409 145.200,25.600 145.372,25.600 145.582 C 25.600 146.349,23.095 151.183,22.794 150.996 C 22.623 150.891,22.377 151.083,22.246 151.423 C 22.099 151.807,22.174 151.940,22.443 151.773 C 22.710 151.608,22.822 151.793,22.733 152.253 C 22.654 152.664,22.337 153.000,22.028 153.000 C 21.719 153.000,21.392 153.225,21.300 153.500 C 21.208 153.775,21.328 154.000,21.567 154.000 C 22.229 154.000,22.082 155.883,21.400 156.145 C 20.685 156.419,20.654 156.221,21.240 155.125 C 21.482 154.673,21.505 154.411,21.292 154.543 C 20.519 155.021,19.831 157.249,20.357 157.573 C 20.915 157.918,20.329 159.624,19.179 161.000 C 18.304 162.047,17.965 163.512,18.542 163.749 C 18.794 163.852,18.706 163.951,18.347 163.968 C 17.987 163.986,17.585 164.405,17.452 164.900 C 17.097 166.224,17.159 166.682,17.600 166.000 C 17.937 165.478,17.989 165.485,17.994 166.051 C 17.997 166.409,17.755 166.905,17.456 167.154 C 17.146 167.410,16.994 168.035,17.103 168.603 C 17.207 169.151,17.112 169.600,16.891 169.600 C 16.670 169.600,16.497 169.825,16.507 170.100 C 16.565 171.649,16.360 172.422,15.957 172.174 C 15.655 171.987,15.605 172.187,15.800 172.800 C 15.978 173.361,15.936 173.608,15.688 173.455 C 15.470 173.320,15.197 173.567,15.083 174.004 C 14.969 174.442,15.038 174.800,15.237 174.800 C 15.437 174.800,15.600 174.620,15.600 174.400 C 15.600 174.180,15.808 174.000,16.062 174.000 C 16.316 174.000,16.181 174.379,15.762 174.842 C 15.343 175.305,15.045 175.755,15.100 175.842 C 15.344 176.227,15.168 176.828,14.867 176.641 C 14.683 176.528,14.533 176.689,14.533 177.000 C 14.533 177.311,14.719 177.450,14.945 177.310 C 15.172 177.170,14.949 177.629,14.450 178.329 C 13.544 179.603,13.408 181.303,14.134 182.300 C 14.369 182.623,14.331 182.800,14.025 182.800 C 13.765 182.800,13.667 182.984,13.806 183.210 C 13.945 183.435,13.832 183.570,13.553 183.510 C 13.275 183.449,12.982 183.760,12.902 184.200 C 12.781 184.870,12.829 184.902,13.201 184.400 C 13.542 183.937,13.605 184.193,13.473 185.516 C 13.378 186.460,13.190 187.343,13.054 187.479 C 12.918 187.615,13.015 187.977,13.269 188.283 C 13.635 188.724,13.564 188.884,12.932 189.049 C 12.136 189.258,11.708 191.600,12.467 191.600 C 12.650 191.600,12.800 191.799,12.800 192.043 C 12.800 192.286,12.530 192.382,12.200 192.255 C 11.751 192.083,11.600 192.320,11.600 193.200 C 11.600 194.080,11.751 194.317,12.200 194.145 C 12.573 194.001,12.800 194.147,12.800 194.530 C 12.800 194.869,12.440 195.260,12.000 195.400 C 11.141 195.673,10.847 197.734,11.600 198.200 C 12.233 198.591,12.065 199.310,11.400 199.055 C 10.610 198.752,10.560 201.417,11.341 202.198 C 11.752 202.609,11.797 203.205,11.530 204.670 C 11.073 207.174,10.874 218.000,11.285 218.000 C 11.458 218.000,11.597 218.675,11.594 219.500 C 11.589 220.616,11.488 220.846,11.200 220.400 C 10.869 219.887,10.811 219.902,10.806 220.500 C 10.803 220.885,10.959 221.200,11.153 221.200 C 11.785 221.200,11.974 222.835,11.369 223.067 C 10.735 223.311,10.576 225.200,11.190 225.200 C 11.409 225.200,11.482 225.769,11.356 226.500 C 11.204 227.383,11.255 227.627,11.513 227.262 C 11.802 226.854,11.963 226.996,12.177 227.852 C 12.351 228.544,12.294 229.035,12.030 229.123 C 11.794 229.202,11.603 229.657,11.606 230.133 C 11.611 230.814,11.691 230.876,11.979 230.421 C 12.555 229.511,12.968 231.739,12.415 232.772 C 12.056 233.443,12.090 233.747,12.581 234.238 C 13.267 234.924,13.430 235.789,12.800 235.400 C 12.580 235.264,12.400 235.324,12.400 235.534 C 12.400 235.743,12.670 236.018,13.000 236.145 C 13.337 236.274,13.597 236.863,13.594 237.487 C 13.589 238.353,13.502 238.467,13.200 238.000 C 12.887 237.516,12.811 237.577,12.806 238.314 C 12.803 238.817,13.091 239.672,13.446 240.214 C 13.801 240.756,13.936 241.203,13.746 241.206 C 13.556 241.209,13.658 241.376,13.974 241.576 C 14.427 241.862,14.447 242.061,14.067 242.519 C 13.585 243.100,13.813 244.400,14.396 244.400 C 14.864 244.400,15.179 245.966,14.762 246.223 C 14.189 246.578,14.341 247.200,15.000 247.200 C 15.330 247.200,15.600 247.470,15.600 247.800 C 15.600 248.130,15.414 248.400,15.186 248.400 C 14.925 248.400,14.956 248.734,15.270 249.300 C 15.544 249.795,15.718 250.443,15.657 250.740 C 15.596 251.037,15.739 251.162,15.973 251.017 C 16.333 250.794,16.531 251.823,16.366 253.055 C 16.347 253.196,16.531 253.434,16.775 253.585 C 17.019 253.736,17.244 254.513,17.274 255.313 C 17.309 256.245,17.485 256.674,17.764 256.507 C 18.004 256.364,17.930 256.586,17.600 257.000 C 17.270 257.414,17.216 257.624,17.480 257.466 C 17.766 257.294,18.149 257.531,18.426 258.049 C 18.825 258.795,18.799 258.885,18.247 258.673 C 17.891 258.537,17.600 258.599,17.600 258.813 C 17.600 259.026,17.915 259.214,18.300 259.232 C 18.685 259.249,18.793 259.348,18.540 259.452 C 17.959 259.689,18.507 261.839,19.115 261.710 C 19.368 261.657,19.475 262.124,19.381 262.867 C 19.194 264.349,19.547 265.115,20.062 264.343 C 20.304 263.980,20.346 264.138,20.190 264.816 C 19.890 266.117,20.599 268.000,21.390 268.000 C 21.804 268.000,22.000 268.394,22.000 269.224 C 22.000 269.937,22.167 270.344,22.400 270.200 C 22.620 270.064,22.800 270.334,22.800 270.800 C 22.800 271.362,22.632 271.552,22.300 271.365 C 22.025 271.209,22.209 271.480,22.709 271.965 C 23.209 272.450,23.526 272.997,23.413 273.179 C 23.301 273.360,23.477 273.732,23.804 274.004 C 24.132 274.276,24.397 274.701,24.394 274.949 C 24.391 275.197,24.213 275.130,24.000 274.800 C 23.486 274.005,23.501 274.397,24.044 275.953 C 24.400 276.977,24.596 277.135,25.044 276.764 C 25.488 276.395,25.600 276.467,25.600 277.122 C 25.600 277.574,25.825 278.185,26.100 278.481 C 26.916 279.359,26.997 280.261,26.200 279.600 C 25.618 279.117,25.603 279.169,26.042 280.133 C 26.310 280.720,26.785 281.200,27.098 281.200 C 27.411 281.200,27.585 281.425,27.486 281.700 C 27.386 281.975,27.579 282.515,27.914 282.900 C 28.419 283.479,28.427 283.602,27.962 283.613 C 27.560 283.622,27.610 283.785,28.140 284.186 C 28.574 284.515,28.755 284.949,28.578 285.235 C 28.385 285.547,28.443 285.621,28.738 285.438 C 29.035 285.255,29.205 285.482,29.213 286.076 C 29.226 287.023,30.127 288.540,30.471 288.196 C 30.577 288.090,30.649 288.408,30.632 288.902 C 30.614 289.404,30.814 289.758,31.086 289.705 C 31.385 289.646,31.474 289.863,31.318 290.270 C 31.134 290.749,31.210 290.841,31.594 290.604 C 31.930 290.396,32.028 290.432,31.861 290.702 C 31.493 291.297,31.979 292.400,32.610 292.400 C 32.899 292.400,33.509 293.006,33.967 293.747 C 34.893 295.244,35.023 295.785,34.360 295.375 C 33.430 294.801,34.782 296.696,35.758 297.336 C 36.409 297.763,36.791 298.432,36.874 299.292 C 36.961 300.195,37.281 300.723,37.905 300.997 C 38.404 301.216,38.743 301.576,38.661 301.797 C 38.434 302.406,39.023 303.800,39.507 303.800 C 39.999 303.800,41.600 305.547,41.600 306.085 C 41.600 306.284,41.375 306.318,41.100 306.159 C 40.810 305.992,40.740 306.024,40.933 306.236 C 41.117 306.436,41.477 306.600,41.733 306.600 C 41.990 306.600,42.258 307.005,42.328 307.500 C 42.398 307.995,42.691 308.400,42.979 308.400 C 43.267 308.400,43.749 308.704,44.051 309.075 C 44.533 309.668,44.513 309.717,43.879 309.479 C 43.446 309.317,43.256 309.367,43.403 309.605 C 43.537 309.822,43.856 310.000,44.111 310.000 C 44.744 310.000,46.435 312.020,46.166 312.455 C 45.818 313.017,47.628 315.275,48.239 315.040 C 48.854 314.804,49.730 316.119,49.286 316.612 C 49.129 316.786,49.256 316.780,49.568 316.599 C 49.987 316.355,50.071 316.438,49.888 316.914 C 49.719 317.355,49.814 317.493,50.190 317.349 C 50.492 317.233,50.939 317.511,51.183 317.969 C 51.518 318.594,51.510 318.800,51.152 318.800 C 50.867 318.800,50.966 319.120,51.400 319.600 C 51.798 320.040,52.456 320.400,52.862 320.400 C 53.342 320.400,53.600 320.690,53.600 321.229 C 53.600 322.201,54.356 323.055,55.395 323.257 C 55.801 323.336,56.223 323.670,56.332 324.000 C 56.507 324.531,56.442 324.532,55.765 324.007 C 55.012 323.423,55.012 323.428,55.762 324.307 C 56.181 324.798,56.785 325.200,57.104 325.200 C 57.795 325.200,59.392 327.128,59.419 327.992 C 59.429 328.327,59.654 328.555,59.919 328.500 C 60.183 328.445,60.355 328.625,60.300 328.900 C 60.245 329.175,60.404 329.362,60.652 329.316 C 60.901 329.270,61.441 329.627,61.852 330.109 C 62.589 330.974,62.589 330.978,61.800 330.400 C 61.010 329.821,61.009 329.825,61.753 330.697 C 62.168 331.183,62.691 331.468,62.915 331.329 C 63.140 331.190,63.208 331.264,63.066 331.493 C 62.925 331.722,63.081 332.135,63.414 332.411 C 63.924 332.835,63.980 332.795,63.774 332.157 C 63.594 331.598,63.795 331.688,64.546 332.500 C 65.104 333.105,65.750 333.600,65.981 333.600 C 66.362 333.600,66.562 334.147,66.452 334.886 C 66.429 335.043,66.685 335.066,67.021 334.937 C 67.358 334.807,67.604 334.859,67.569 335.051 C 67.406 335.946,67.670 336.354,68.490 336.472 C 68.979 336.542,69.580 337.004,69.825 337.497 C 70.437 338.728,71.633 340.003,72.162 339.987 C 72.403 339.980,72.285 339.735,71.900 339.443 C 70.937 338.712,71.015 338.278,72.000 338.893 C 72.440 339.168,72.800 339.703,72.800 340.082 C 72.800 340.768,74.283 341.862,74.950 341.668 C 75.652 341.464,76.861 342.912,76.309 343.297 C 75.981 343.526,76.119 343.563,76.700 343.399 C 77.528 343.166,77.793 343.460,77.660 344.462 C 77.641 344.606,78.430 345.102,79.413 345.564 C 80.396 346.026,81.200 346.504,81.200 346.626 C 81.200 346.748,81.020 346.736,80.800 346.600 C 80.149 346.198,80.344 346.657,81.077 347.251 C 81.537 347.624,81.657 347.640,81.453 347.300 C 81.282 347.015,81.351 346.800,81.614 346.800 C 81.867 346.800,82.160 347.124,82.263 347.520 C 82.367 347.916,82.826 348.474,83.284 348.759 C 84.011 349.214,84.084 349.196,83.863 348.619 C 83.714 348.232,83.773 348.060,84.005 348.203 C 84.222 348.337,84.400 348.717,84.400 349.047 C 84.400 349.377,84.568 349.544,84.772 349.417 C 84.977 349.291,85.260 349.373,85.400 349.600 C 85.540 349.827,85.799 349.924,85.974 349.816 C 86.150 349.708,86.615 349.975,87.009 350.409 C 87.402 350.844,87.561 351.206,87.362 351.213 C 87.163 351.220,87.332 351.477,87.739 351.785 C 88.145 352.093,88.730 352.248,89.039 352.130 C 89.365 352.005,89.600 352.163,89.600 352.508 C 89.600 353.341,90.666 354.201,90.885 353.545 C 90.992 353.223,91.688 353.497,92.932 354.353 C 93.968 355.066,94.713 355.817,94.587 356.020 C 94.462 356.224,94.624 356.289,94.949 356.164 C 95.302 356.029,95.723 356.283,96.000 356.800 C 96.277 357.317,96.698 357.571,97.051 357.436 C 97.376 357.311,97.542 357.369,97.421 357.565 C 97.300 357.761,97.853 358.306,98.649 358.776 C 99.952 359.545,100.072 359.559,99.848 358.915 C 99.613 358.241,99.631 358.242,100.163 358.927 C 100.473 359.326,100.834 359.641,100.964 359.627 C 101.836 359.528,102.057 359.675,101.849 360.215 C 101.559 360.973,103.245 361.743,103.683 361.053 C 103.884 360.737,104.117 360.769,104.483 361.162 C 104.908 361.619,104.902 361.661,104.448 361.403 C 104.072 361.189,103.955 361.266,104.081 361.644 C 104.183 361.950,104.522 362.200,104.833 362.200 C 105.145 362.200,105.622 362.470,105.892 362.800 C 106.297 363.293,106.448 363.305,106.737 362.866 C 107.006 362.458,107.142 362.535,107.314 363.191 C 107.437 363.663,107.777 364.019,108.069 363.981 C 108.946 363.869,110.407 364.465,110.175 364.841 C 110.056 365.033,110.215 365.093,110.528 364.972 C 110.841 364.852,111.204 365.034,111.336 365.377 C 111.467 365.720,112.031 366.000,112.587 366.000 C 113.144 366.000,113.600 366.191,113.600 366.424 C 113.600 366.657,113.780 366.736,114.000 366.600 C 114.220 366.464,114.400 366.513,114.400 366.710 C 114.400 366.906,114.929 367.067,115.575 367.067 C 116.257 367.067,117.389 367.555,118.275 368.233 C 119.785 369.388,119.957 369.464,121.279 369.554 C 121.653 369.579,122.444 370.050,123.038 370.600 C 124.268 371.740,124.764 371.922,123.949 370.935 C 123.455 370.336,123.484 370.314,124.233 370.713 C 124.691 370.957,125.301 371.440,125.589 371.787 C 125.913 372.177,126.416 372.322,126.907 372.166 C 127.390 372.013,127.603 372.071,127.452 372.315 C 127.316 372.536,127.483 372.823,127.823 372.954 C 128.207 373.101,128.340 373.026,128.173 372.757 C 128.007 372.488,128.189 372.385,128.653 372.485 C 129.064 372.575,129.351 372.875,129.290 373.153 C 129.230 373.432,129.353 373.553,129.564 373.422 C 130.059 373.116,133.200 374.367,133.200 374.870 C 133.200 375.081,133.560 375.140,134.000 375.000 C 134.440 374.860,134.800 374.921,134.800 375.134 C 134.800 375.347,135.346 375.712,136.014 375.945 C 136.733 376.196,137.131 376.212,136.990 375.984 C 136.538 375.253,137.425 375.604,138.141 376.439 C 138.576 376.948,139.156 377.200,139.615 377.080 C 140.030 376.972,140.579 377.134,140.834 377.441 C 141.394 378.116,142.800 378.185,142.800 377.538 C 142.800 377.227,143.028 377.259,143.500 377.638 C 144.324 378.299,145.891 379.200,146.218 379.200 C 146.344 379.200,146.316 378.975,146.155 378.700 C 145.994 378.425,146.208 378.500,146.631 378.866 C 147.114 379.285,147.795 379.456,148.463 379.327 C 149.187 379.187,149.924 379.416,150.778 380.047 C 151.831 380.825,152.156 380.895,152.813 380.485 C 153.468 380.076,153.727 380.127,154.398 380.798 C 155.170 381.570,156.663 381.950,156.241 381.267 C 156.128 381.083,156.297 380.933,156.618 380.933 C 156.938 380.933,157.200 381.193,157.200 381.509 C 157.200 381.846,157.439 381.994,157.774 381.865 C 158.090 381.744,158.419 381.856,158.505 382.114 C 158.595 382.384,159.526 382.598,160.702 382.618 C 161.824 382.638,163.007 382.874,163.330 383.142 C 164.020 383.715,166.800 383.624,166.800 383.029 C 166.800 382.805,167.080 383.022,167.423 383.511 C 168.022 384.367,169.105 384.817,168.600 384.000 C 168.456 383.768,168.851 383.600,169.543 383.600 C 170.198 383.600,170.803 383.809,170.888 384.065 C 170.974 384.321,171.349 384.575,171.724 384.630 C 172.098 384.685,172.302 384.566,172.178 384.365 C 172.054 384.164,172.149 384.000,172.389 384.000 C 172.629 384.000,172.929 384.270,173.055 384.600 C 173.333 385.325,174.395 385.403,174.412 384.700 C 174.419 384.423,174.606 384.512,174.832 384.900 C 175.288 385.683,176.606 385.837,177.026 385.157 C 177.217 384.849,177.404 384.879,177.644 385.257 C 177.933 385.713,177.989 385.713,177.994 385.254 C 177.999 384.819,178.201 384.840,178.986 385.354 C 180.067 386.062,181.200 386.207,181.200 385.637 C 181.200 385.438,181.575 385.373,182.034 385.493 C 182.668 385.659,182.740 385.792,182.334 386.049 C 181.917 386.313,181.944 386.389,182.457 386.394 C 182.819 386.397,183.217 386.133,183.342 385.807 C 183.478 385.453,183.832 385.314,184.218 385.462 C 184.738 385.662,184.761 385.778,184.334 386.050 C 183.625 386.499,184.232 386.487,186.786 386.003 C 188.230 385.729,189.086 385.737,189.540 386.030 C 190.095 386.387,190.056 386.425,189.300 386.265 C 188.703 386.139,188.400 386.264,188.400 386.637 C 188.400 387.014,188.864 387.200,189.800 387.200 C 190.570 387.200,191.200 387.020,191.200 386.800 C 191.200 386.580,191.661 386.400,192.224 386.400 C 192.804 386.400,193.140 386.573,193.000 386.800 C 192.860 387.027,193.196 387.200,193.776 387.200 C 194.339 387.200,194.800 387.020,194.800 386.800 C 194.800 386.580,195.160 386.400,195.600 386.400 C 196.040 386.400,196.400 386.580,196.400 386.800 C 196.400 387.328,198.125 387.315,198.656 386.784 C 198.942 386.498,199.625 386.495,200.836 386.774 C 203.308 387.344,211.324 387.309,212.611 386.722 C 213.442 386.343,213.836 386.355,214.511 386.777 C 215.123 387.158,215.407 387.180,215.515 386.854 C 215.702 386.295,217.200 386.246,217.200 386.800 C 217.200 387.020,217.481 387.200,217.824 387.200 C 218.167 387.200,218.336 387.020,218.200 386.800 C 218.060 386.573,218.396 386.400,218.976 386.400 C 219.539 386.400,220.000 386.580,220.000 386.800 C 220.000 387.506,221.573 387.227,222.431 386.369 C 222.888 385.912,223.505 385.632,223.803 385.746 C 225.079 386.235,227.401 386.460,226.800 386.036 C 226.300 385.683,226.345 385.611,227.067 385.606 C 227.543 385.603,228.004 385.812,228.090 386.071 C 228.192 386.376,228.450 386.415,228.824 386.181 C 229.141 385.982,229.730 385.874,230.134 385.941 C 230.538 386.007,231.213 385.750,231.634 385.369 C 232.080 384.966,232.400 384.869,232.400 385.138 C 232.400 385.392,232.681 385.600,233.024 385.600 C 233.367 385.600,233.548 385.440,233.427 385.243 C 233.306 385.047,233.880 384.805,234.703 384.706 C 235.526 384.606,236.260 384.677,236.333 384.862 C 236.552 385.416,237.273 385.247,237.886 384.500 C 238.201 384.115,238.350 384.017,238.216 384.283 C 238.050 384.614,238.324 384.584,239.087 384.188 C 239.750 383.844,240.254 383.770,240.333 384.005 C 240.617 384.847,243.208 384.445,243.588 383.500 C 243.787 383.005,243.961 382.861,243.975 383.180 C 243.994 383.631,244.107 383.653,244.480 383.280 C 245.058 382.702,246.551 382.632,246.200 383.200 C 246.064 383.420,246.143 383.600,246.376 383.600 C 246.609 383.600,246.800 383.409,246.800 383.176 C 246.800 382.943,246.980 382.864,247.199 383.000 C 247.419 383.135,247.992 382.971,248.472 382.635 C 249.064 382.220,249.499 382.150,249.822 382.418 C 250.433 382.925,251.679 382.463,251.334 381.858 C 251.190 381.606,251.214 381.529,251.388 381.686 C 251.563 381.843,252.042 381.792,252.453 381.572 C 253.002 381.278,253.202 381.308,253.206 381.686 C 253.211 382.063,253.308 382.048,253.574 381.628 C 253.986 380.977,255.200 380.684,255.200 381.235 C 255.200 381.826,255.789 381.656,256.708 380.800 C 257.696 379.879,258.248 379.789,258.535 380.500 C 258.690 380.885,258.744 380.879,258.768 380.476 C 258.786 380.188,258.988 380.069,259.218 380.211 C 259.447 380.353,259.897 380.251,260.218 379.985 C 260.538 379.720,260.803 379.659,260.806 379.851 C 260.809 380.043,260.987 379.930,261.200 379.600 C 261.445 379.221,261.590 379.179,261.594 379.487 C 261.597 379.756,261.869 379.872,262.198 379.746 C 262.526 379.619,262.701 379.363,262.585 379.176 C 262.469 378.988,262.785 378.853,263.287 378.874 C 264.819 378.940,265.258 378.818,265.000 378.400 C 264.864 378.180,265.044 378.000,265.400 378.000 C 265.756 378.000,265.936 378.180,265.800 378.400 C 265.664 378.620,265.743 378.800,265.976 378.800 C 266.209 378.800,266.400 378.546,266.400 378.235 C 266.400 377.835,266.741 377.724,267.564 377.853 C 268.442 377.992,268.881 377.819,269.347 377.155 C 269.786 376.528,270.114 376.385,270.482 376.662 C 270.825 376.920,271.474 376.881,272.400 376.548 C 273.170 376.272,273.620 376.029,273.400 376.008 C 273.180 375.988,273.442 375.727,273.983 375.427 C 274.524 375.128,275.403 374.962,275.938 375.059 C 276.568 375.174,277.236 374.930,277.836 374.366 C 278.398 373.838,279.070 373.577,279.546 373.702 C 280.089 373.844,280.393 373.671,280.532 373.140 C 280.683 372.561,280.989 372.419,281.774 372.561 C 282.347 372.665,282.720 372.594,282.602 372.403 C 282.484 372.212,282.590 371.930,282.838 371.776 C 283.086 371.623,283.438 371.737,283.619 372.030 C 283.892 372.473,284.119 372.472,284.960 372.021 C 285.517 371.723,285.859 371.296,285.721 371.072 C 285.568 370.825,285.732 370.765,286.134 370.919 C 286.501 371.060,286.800 370.982,286.800 370.745 C 286.800 370.508,287.072 370.419,287.403 370.546 C 288.210 370.856,290.032 370.136,289.903 369.559 C 289.846 369.306,290.025 369.018,290.300 368.917 C 290.575 368.816,290.800 368.955,290.800 369.225 C 290.800 369.496,291.258 369.223,291.817 368.619 C 292.620 367.753,293.062 367.575,293.917 367.773 C 294.667 367.947,294.825 367.908,294.431 367.646 C 293.860 367.266,296.156 366.000,297.416 366.000 C 297.700 366.000,297.999 365.802,298.080 365.560 C 298.161 365.318,298.812 365.075,299.527 365.018 C 300.242 364.962,301.104 364.575,301.443 364.158 C 301.782 363.741,301.947 363.623,301.809 363.895 C 301.644 364.221,301.770 364.309,302.177 364.154 C 302.517 364.023,302.714 363.784,302.614 363.623 C 302.424 363.316,305.374 361.600,306.094 361.600 C 306.324 361.600,306.751 361.285,307.043 360.900 C 307.335 360.515,307.580 360.411,307.587 360.669 C 307.603 361.256,310.000 360.141,310.000 359.547 C 310.000 359.330,310.176 359.262,310.392 359.395 C 310.607 359.528,311.172 359.429,311.646 359.176 C 312.334 358.807,312.396 358.643,311.954 358.363 C 311.649 358.170,311.580 357.996,311.800 357.976 C 313.678 357.803,314.904 357.292,314.605 356.807 C 314.463 356.578,314.620 356.509,314.973 356.645 C 315.678 356.916,318.253 354.923,318.102 354.224 C 318.048 353.974,318.408 353.750,318.902 353.726 C 319.396 353.701,319.575 353.768,319.300 353.874 C 319.025 353.980,318.806 354.277,318.813 354.533 C 318.821 354.790,319.136 354.640,319.513 354.200 C 319.891 353.760,320.695 353.179,321.300 352.908 C 321.905 352.638,322.400 352.220,322.400 351.980 C 322.400 351.082,323.637 350.213,324.030 350.835 C 324.359 351.355,324.574 351.058,324.437 350.270 C 324.406 350.089,324.554 350.048,324.766 350.179 C 324.977 350.310,325.329 350.098,325.547 349.708 C 325.765 349.319,326.072 349.090,326.228 349.200 C 326.385 349.310,326.712 349.040,326.956 348.600 C 327.455 347.700,328.019 347.215,328.576 347.206 C 328.784 347.203,328.604 347.480,328.176 347.822 C 327.430 348.420,327.435 348.427,328.296 348.010 C 328.789 347.771,329.149 347.356,329.096 347.088 C 329.043 346.820,329.238 346.649,329.530 346.710 C 329.821 346.770,329.945 346.634,329.804 346.407 C 329.551 345.997,331.165 345.157,331.655 345.443 C 331.795 345.524,332.155 345.289,332.455 344.919 C 332.830 344.456,332.844 344.340,332.500 344.547 C 332.225 344.712,332.000 344.657,332.000 344.424 C 332.000 344.191,332.371 344.000,332.824 344.000 C 333.277 344.000,333.537 343.822,333.403 343.605 C 333.263 343.378,333.423 343.311,333.779 343.447 C 334.121 343.578,334.400 343.486,334.400 343.243 C 334.400 342.999,334.648 342.800,334.951 342.800 C 335.254 342.800,335.749 342.495,336.051 342.123 C 336.519 341.547,336.517 341.497,336.038 341.785 C 335.646 342.022,335.567 341.976,335.778 341.635 C 335.944 341.367,336.182 341.249,336.308 341.374 C 336.693 341.760,338.000 340.321,338.000 339.511 C 338.000 338.947,338.196 338.808,338.745 338.983 C 339.283 339.153,339.791 338.825,340.571 337.802 C 341.166 337.023,341.805 336.480,341.992 336.595 C 342.356 336.820,344.807 334.928,344.743 334.472 C 344.626 333.631,344.870 333.252,345.400 333.455 C 345.749 333.589,346.006 333.459,346.013 333.143 C 346.030 332.442,347.398 330.800,347.964 330.800 C 348.204 330.800,348.400 330.651,348.400 330.470 C 348.400 329.935,352.857 325.600,353.407 325.600 C 353.684 325.600,353.886 325.285,353.856 324.900 C 353.823 324.485,354.080 324.198,354.486 324.195 C 355.509 324.189,358.444 320.980,358.143 320.197 C 357.974 319.756,358.166 319.482,358.748 319.329 C 359.217 319.207,359.600 318.878,359.600 318.599 C 359.600 318.320,360.050 317.797,360.600 317.437 C 361.150 317.076,361.600 316.526,361.600 316.214 C 361.600 315.902,361.808 315.519,362.062 315.362 C 362.375 315.168,362.415 315.257,362.185 315.638 C 361.911 316.093,361.983 316.089,362.567 315.615 C 362.998 315.264,363.109 314.970,362.844 314.881 C 362.092 314.631,362.354 314.000,363.210 314.000 C 363.790 314.000,364.088 313.659,364.260 312.800 C 364.392 312.140,364.668 311.600,364.874 311.600 C 365.079 311.600,365.112 311.825,364.947 312.100 C 364.753 312.423,364.893 312.400,365.342 312.035 C 365.879 311.599,365.922 311.399,365.529 311.156 C 365.165 310.931,365.302 310.728,366.010 310.446 C 366.554 310.229,366.764 310.039,366.476 310.025 C 366.188 310.011,366.066 309.817,366.204 309.593 C 366.342 309.370,366.627 309.293,366.838 309.423 C 367.048 309.553,367.184 309.511,367.140 309.330 C 366.977 308.655,368.082 306.954,368.924 306.584 C 369.403 306.373,369.863 305.842,369.945 305.404 C 370.028 304.967,370.427 304.377,370.831 304.093 C 371.248 303.801,371.466 303.316,371.334 302.973 C 371.188 302.591,371.305 302.410,371.651 302.484 C 371.953 302.548,372.155 302.375,372.100 302.100 C 372.045 301.825,372.135 301.621,372.300 301.647 C 373.065 301.768,373.260 301.554,372.842 301.051 C 372.334 300.439,372.676 299.076,373.248 299.430 C 373.449 299.554,373.492 299.851,373.345 300.089 C 373.181 300.354,373.263 300.408,373.554 300.228 C 373.817 300.066,373.930 299.610,373.805 299.216 C 373.645 298.710,373.832 298.433,374.441 298.273 C 375.016 298.123,375.225 297.841,375.066 297.429 C 374.929 297.070,375.025 296.850,375.295 296.905 C 375.551 296.957,375.960 296.411,376.204 295.690 C 376.448 294.970,376.771 294.505,376.923 294.657 C 377.076 294.809,377.200 294.633,377.200 294.267 C 377.200 293.900,377.337 293.600,377.504 293.600 C 377.671 293.600,378.042 293.224,378.329 292.765 C 378.809 291.996,378.778 291.948,377.925 292.161 C 377.416 292.289,377.225 292.289,377.500 292.163 C 377.775 292.037,378.000 291.752,378.000 291.530 C 378.000 290.909,379.461 289.194,379.747 289.480 C 379.886 289.619,380.000 289.343,380.000 288.867 C 380.000 288.390,380.191 288.000,380.424 288.000 C 380.657 288.000,380.745 287.835,380.620 287.632 C 380.495 287.430,380.677 286.980,381.025 286.632 C 381.373 286.285,381.509 285.997,381.329 285.994 C 381.148 285.991,381.180 285.856,381.400 285.694 C 382.052 285.215,382.800 283.671,382.800 282.805 C 382.800 282.362,382.980 282.000,383.200 282.000 C 383.420 282.000,383.600 281.550,383.600 281.000 C 383.600 280.388,383.828 280.000,384.186 280.000 C 384.508 280.000,384.958 279.652,385.186 279.226 C 385.823 278.036,385.649 277.669,384.983 278.800 L 384.393 279.800 384.648 278.600 C 384.921 277.318,385.600 276.278,385.600 277.144 C 385.600 277.421,385.792 277.528,386.027 277.383 C 386.262 277.238,386.364 276.882,386.253 276.593 C 386.141 276.303,386.297 275.971,386.599 275.856 C 386.901 275.740,387.133 275.132,387.115 274.506 C 387.083 273.351,387.803 271.607,388.501 271.151 C 388.711 271.014,388.963 270.024,389.062 268.951 C 389.161 267.878,389.413 266.829,389.621 266.620 C 389.830 266.411,390.000 265.905,390.000 265.496 C 390.000 265.087,390.168 264.856,390.372 264.983 C 390.577 265.109,390.875 265.002,391.034 264.745 C 391.228 264.431,391.149 264.384,390.794 264.604 C 390.428 264.830,390.331 264.756,390.481 264.366 C 390.600 264.055,391.018 262.810,391.411 261.600 C 392.334 258.754,392.902 257.471,393.399 257.106 C 393.648 256.924,393.610 256.810,393.300 256.806 C 393.025 256.803,392.800 256.331,392.800 255.757 C 392.800 254.979,392.958 254.775,393.421 254.953 C 393.777 255.089,393.937 255.022,393.797 254.795 C 393.663 254.578,393.712 254.400,393.907 254.400 C 394.102 254.400,394.178 253.834,394.077 253.143 C 393.937 252.189,394.017 251.963,394.408 252.205 C 394.747 252.414,394.826 252.365,394.638 252.062 C 394.481 251.808,394.492 251.375,394.662 251.100 C 394.832 250.825,394.919 250.105,394.855 249.500 C 394.792 248.895,394.904 248.400,395.106 248.400 C 395.627 248.400,396.508 246.320,396.107 246.036 C 395.640 245.706,395.715 244.826,396.239 244.485 C 396.481 244.328,396.646 243.795,396.606 243.300 C 396.566 242.805,396.720 242.400,396.947 242.400 C 397.210 242.400,397.197 242.237,396.911 241.951 C 396.427 241.467,396.679 240.278,397.197 240.598 C 397.370 240.705,397.426 240.164,397.323 239.396 C 397.199 238.473,397.297 238.000,397.614 238.000 C 397.896 238.000,398.007 237.671,397.884 237.200 C 397.769 236.760,397.831 236.400,398.023 236.400 C 398.502 236.400,398.395 232.660,397.908 232.350 C 397.659 232.192,397.677 232.000,397.957 231.826 C 398.201 231.676,398.400 231.754,398.400 232.000 C 398.400 232.246,398.580 232.336,398.800 232.200 C 399.380 231.841,399.296 228.899,398.700 228.698 C 398.310 228.567,398.321 228.384,398.749 227.865 C 399.178 227.345,399.186 227.200,398.787 227.200 C 398.427 227.200,398.472 226.983,398.938 226.469 C 399.631 225.703,399.838 225.005,399.268 225.358 C 399.086 225.471,398.981 225.166,399.035 224.681 C 399.089 224.197,399.161 223.260,399.195 222.600 C 399.248 221.558,399.302 221.505,399.600 222.200 C 399.913 222.928,399.946 222.909,399.972 221.980 C 399.987 221.419,399.784 220.744,399.520 220.480 C 399.147 220.107,399.147 219.893,399.520 219.520 C 400.104 218.936,400.147 217.022,399.599 215.998 C 399.331 215.497,399.331 215.166,399.599 215.001 C 400.171 214.647,400.096 208.525,399.500 206.863 C 399.100 205.748,399.100 205.436,399.500 205.301 C 400.146 205.084,400.146 203.514,399.500 202.830 C 399.100 202.406,399.100 202.263,399.500 202.117 C 400.197 201.861,400.126 199.982,399.400 199.444 C 398.624 198.871,398.243 194.763,398.920 194.281 C 399.290 194.017,399.286 193.893,398.900 193.736 C 398.625 193.625,398.400 193.268,398.400 192.943 C 398.400 192.618,398.580 192.464,398.800 192.600 C 399.629 193.112,399.161 191.218,398.311 190.623 C 397.822 190.280,397.621 190.000,397.864 190.000 C 398.343 190.000,398.317 188.230,397.821 187.100 C 397.653 186.715,397.616 186.136,397.740 185.813 C 397.864 185.490,397.812 185.131,397.626 185.016 C 397.439 184.900,397.357 184.083,397.443 183.199 C 397.562 181.972,397.415 181.434,396.822 180.926 C 396.232 180.421,396.140 180.086,396.438 179.529 C 396.923 178.622,396.261 175.919,395.325 174.982 C 394.801 174.459,394.775 174.263,395.193 174.004 C 395.484 173.824,395.603 173.385,395.461 173.015 C 395.321 172.649,395.054 172.443,394.869 172.557 C 394.685 172.671,394.532 172.548,394.530 172.282 C 394.527 172.017,394.396 171.350,394.237 170.800 C 394.017 170.041,394.049 169.944,394.368 170.400 C 394.948 171.229,394.893 170.502,394.231 168.600 C 393.925 167.720,393.527 167.000,393.348 167.000 C 393.168 167.000,393.071 166.625,393.131 166.166 C 393.191 165.707,392.961 165.100,392.620 164.817 C 392.279 164.534,392.000 164.000,392.000 163.631 C 392.000 163.262,391.777 162.737,391.503 162.463 C 391.108 162.068,391.128 161.890,391.603 161.589 C 392.131 161.256,392.131 161.211,391.600 161.200 C 391.113 161.190,391.102 161.123,391.540 160.846 C 391.986 160.563,391.966 160.303,391.425 159.352 C 390.821 158.288,390.791 158.277,391.030 159.200 C 391.205 159.874,391.158 160.070,390.885 159.800 C 390.662 159.580,390.378 158.643,390.254 157.717 C 390.027 156.024,389.268 154.400,388.704 154.400 C 388.221 154.400,388.352 153.283,388.854 153.115 C 389.147 153.018,389.068 152.725,388.628 152.285 C 388.255 151.912,388.078 151.397,388.236 151.141 C 388.406 150.866,388.350 150.784,388.097 150.940 C 387.835 151.102,387.566 150.580,387.398 149.588 C 387.041 147.476,386.088 145.600,385.371 145.600 C 385.057 145.600,384.803 145.285,384.806 144.900 C 384.811 144.302,384.869 144.287,385.200 144.800 C 385.413 145.130,385.591 145.253,385.594 145.074 C 385.605 144.499,384.701 143.011,384.142 142.680 C 383.844 142.504,383.600 142.099,383.600 141.780 C 383.600 141.461,383.423 141.200,383.208 141.200 C 382.992 141.200,382.697 140.705,382.552 140.100 C 382.408 139.495,382.119 138.783,381.910 138.518 C 381.702 138.252,381.636 137.866,381.763 137.659 C 381.891 137.453,381.726 137.181,381.398 137.054 C 381.069 136.928,380.800 136.570,380.800 136.258 C 380.800 135.348,379.751 133.584,379.402 133.906 C 379.226 134.068,379.182 133.795,379.303 133.300 C 379.425 132.805,379.362 132.400,379.163 132.400 C 378.963 132.400,378.800 132.062,378.800 131.649 C 378.800 130.514,377.893 129.982,375.327 129.609 C 371.954 129.120,372.078 129.223,368.486 123.880 C 366.673 121.183,363.662 117.010,361.795 114.606 C 357.787 109.443,357.636 109.089,358.785 107.534 C 359.628 106.394,359.629 106.375,358.832 106.873 C 358.084 107.340,357.776 107.154,355.419 104.819 C 353.995 103.407,352.380 102.060,351.830 101.826 C 351.281 101.592,348.710 99.329,346.116 96.797 C 340.182 91.006,336.361 87.625,329.844 82.402 C 327.008 80.129,324.416 77.804,324.083 77.235 C 323.750 76.666,322.606 75.522,321.539 74.694 C 320.079 73.560,319.600 72.923,319.600 72.118 L 319.600 71.049 318.784 71.925 C 317.688 73.101,316.917 73.030,314.578 71.537 C 311.020 69.264,303.863 65.141,300.800 63.599 C 296.979 61.676,293.906 57.371,295.042 55.532 C 295.152 55.355,294.955 55.319,294.604 55.454 C 294.191 55.612,294.008 55.505,294.084 55.149 C 294.159 54.792,293.885 54.633,293.302 54.695 C 292.808 54.747,292.448 54.590,292.502 54.345 C 292.556 54.100,292.350 53.809,292.044 53.698 C 291.683 53.567,291.595 53.668,291.792 53.987 C 291.999 54.322,291.859 54.426,291.347 54.315 C 290.936 54.225,290.649 53.926,290.709 53.650 C 290.770 53.367,290.507 53.192,290.109 53.250 C 289.045 53.405,287.553 52.800,287.842 52.331 C 287.995 52.085,287.755 52.103,287.242 52.377 C 286.552 52.747,286.343 52.716,286.151 52.217 C 286.021 51.878,285.737 51.600,285.520 51.600 C 285.304 51.600,284.662 51.235,284.094 50.788 C 283.364 50.214,282.978 50.112,282.776 50.439 C 282.618 50.694,282.286 50.777,282.038 50.624 C 281.790 50.470,281.678 50.197,281.789 50.018 C 281.900 49.838,281.768 49.698,281.496 49.708 C 279.746 49.771,278.400 49.540,278.400 49.176 C 278.400 48.943,278.625 48.888,278.900 49.053 C 279.243 49.259,279.229 49.143,278.854 48.681 C 278.491 48.232,277.990 48.088,277.354 48.247 C 276.829 48.379,276.400 48.316,276.400 48.108 C 276.400 47.899,275.942 47.520,275.381 47.264 C 274.133 46.696,273.880 46.682,274.200 47.200 C 274.659 47.942,273.784 47.607,273.062 46.763 C 272.561 46.179,272.065 45.997,271.414 46.161 C 270.794 46.316,270.407 46.195,270.254 45.797 C 270.128 45.469,269.559 45.200,268.989 45.200 C 268.419 45.200,268.045 45.350,268.159 45.533 C 268.272 45.717,268.103 45.867,267.782 45.867 C 267.462 45.867,267.200 45.729,267.200 45.561 C 267.200 45.393,266.795 45.194,266.300 45.118 C 265.805 45.043,265.445 44.760,265.500 44.491 C 265.627 43.865,264.919 43.844,264.711 44.467 C 264.616 44.753,264.221 44.574,263.692 44.006 C 262.972 43.234,262.725 43.164,262.214 43.588 C 261.713 44.004,261.599 43.997,261.594 43.549 C 261.589 43.088,261.531 43.089,261.236 43.555 C 260.949 44.008,260.715 43.952,259.960 43.249 C 259.452 42.775,258.848 42.457,258.618 42.542 C 258.388 42.626,257.859 42.404,257.442 42.048 C 256.847 41.540,256.643 41.514,256.500 41.924 C 256.360 42.326,256.134 42.284,255.536 41.742 C 254.902 41.168,254.613 41.125,253.996 41.510 C 253.516 41.809,253.148 41.840,252.995 41.592 C 252.862 41.376,252.973 41.200,253.243 41.200 C 253.513 41.200,253.638 41.105,253.522 40.989 C 253.406 40.873,252.836 40.958,252.255 41.179 C 251.670 41.401,251.200 41.421,251.200 41.223 C 251.200 41.027,251.425 40.779,251.700 40.671 C 251.975 40.563,251.525 40.529,250.700 40.594 C 249.875 40.659,249.200 40.572,249.200 40.399 C 249.200 39.835,247.872 39.561,247.562 40.061 C 247.333 40.433,247.128 40.438,246.701 40.084 C 246.297 39.749,246.020 39.740,245.705 40.055 C 245.229 40.531,244.261 40.148,244.591 39.614 C 244.704 39.433,244.512 39.175,244.165 39.042 C 243.219 38.679,242.922 38.762,243.600 39.200 C 244.047 39.489,243.824 39.589,242.724 39.594 C 241.912 39.597,241.136 39.420,241.000 39.200 C 240.864 38.980,240.973 38.800,241.243 38.800 C 241.513 38.800,241.618 38.684,241.476 38.543 C 241.335 38.402,240.990 38.459,240.710 38.670 C 240.429 38.882,239.660 38.929,239.000 38.775 C 238.340 38.621,238.055 38.473,238.367 38.447 C 238.678 38.421,238.825 38.292,238.693 38.160 C 238.561 38.028,238.216 38.068,237.927 38.249 C 237.065 38.787,236.327 38.780,234.993 38.223 C 234.195 37.889,233.496 37.827,233.092 38.053 C 232.680 38.283,232.351 38.244,232.165 37.943 C 231.992 37.663,232.050 37.584,232.311 37.745 C 232.549 37.892,232.865 37.819,233.012 37.581 C 233.196 37.283,232.813 37.236,231.782 37.430 C 230.706 37.632,230.364 37.582,230.566 37.255 C 230.721 37.005,230.657 36.800,230.424 36.800 C 230.191 36.800,230.000 36.980,230.000 37.200 C 230.000 37.420,229.550 37.600,229.000 37.600 C 228.450 37.600,228.000 37.437,228.000 37.237 C 228.000 37.038,227.640 36.969,227.201 37.084 C 226.761 37.199,225.957 37.002,225.415 36.646 C 224.316 35.926,222.800 35.783,222.800 36.400 C 222.800 36.620,222.339 36.800,221.776 36.800 C 221.196 36.800,220.860 36.627,221.000 36.400 C 221.136 36.180,221.067 36.000,220.847 36.000 C 220.627 36.000,220.324 36.199,220.174 36.443 C 219.983 36.751,219.798 36.721,219.562 36.343 C 219.316 35.947,219.031 35.910,218.512 36.205 C 217.660 36.691,215.489 36.503,215.817 35.973 C 215.952 35.754,214.841 35.620,213.124 35.647 C 211.142 35.679,210.587 35.780,211.400 35.958 C 212.310 36.158,212.439 36.286,211.934 36.485 C 211.046 36.836,208.974 36.229,209.100 35.655 C 209.169 35.339,207.979 35.200,205.200 35.200 C 203.000 35.200,201.200 35.357,201.200 35.550 M198.065 36.426 C 197.475 36.662,196.884 36.657,196.465 36.412 C 195.958 36.116,196.180 36.027,197.400 36.038 C 198.799 36.049,198.883 36.098,198.065 36.426 M226.952 69.827 C 232.965 70.519,234.792 70.893,237.647 72.018 C 238.799 72.473,241.645 73.265,243.971 73.778 C 248.940 74.876,257.592 77.224,261.000 78.400 C 262.320 78.856,264.614 79.401,266.098 79.613 C 269.359 80.077,274.188 81.927,282.200 85.783 C 288.704 88.914,289.840 89.788,289.446 91.359 C 289.211 92.293,289.274 92.338,290.536 92.133 C 291.976 91.899,293.772 92.850,302.000 98.198 C 337.383 121.197,361.540 159.388,365.211 198.135 C 365.610 202.344,365.588 202.950,365.012 203.587 C 364.409 204.253,364.448 204.386,365.582 205.521 L 366.800 206.738 366.797 214.469 C 366.794 222.585,366.412 226.341,365.320 229.000 C 364.907 230.003,364.633 231.943,364.584 234.200 C 364.500 238.039,363.124 244.228,360.842 251.019 C 358.555 257.830,357.898 258.773,355.411 258.825 C 354.292 258.849,354.268 258.878,355.093 259.210 C 356.249 259.675,355.767 261.264,354.357 261.637 C 353.500 261.864,353.476 261.922,354.131 262.199 C 355.913 262.955,355.760 264.257,353.313 269.157 C 350.310 275.173,344.933 283.890,342.681 286.395 C 341.705 287.480,340.605 289.003,340.237 289.778 C 338.927 292.540,333.423 299.058,326.258 306.333 C 320.893 311.781,320.007 312.400,317.577 312.400 C 316.291 312.400,315.965 312.531,316.136 312.978 C 316.367 313.580,313.926 315.853,309.400 319.253 C 254.215 360.701,174.826 364.453,114.600 328.459 C 102.126 321.004,88.663 310.264,89.397 308.353 C 89.566 307.910,89.218 307.825,87.733 307.943 L 85.855 308.092 81.694 303.757 C 76.589 298.437,71.705 292.583,70.492 290.330 C 69.993 289.403,68.784 287.735,67.806 286.622 C 64.164 282.482,56.000 268.359,56.000 266.200 C 56.000 265.411,56.312 265.026,57.300 264.596 C 58.585 264.038,58.587 264.031,57.529 264.016 C 55.471 263.986,53.890 260.570,55.500 259.632 C 56.087 259.290,56.005 259.222,54.989 259.212 C 52.309 259.185,51.484 257.616,48.149 246.200 C 46.582 240.835,46.265 239.182,46.188 235.975 C 46.055 230.463,45.618 227.279,44.681 225.000 C 43.937 223.192,43.844 221.983,43.712 212.400 C 43.550 200.643,43.609 200.303,46.006 199.101 C 46.775 198.715,47.093 198.401,46.714 198.401 C 45.392 198.399,45.194 197.126,45.836 192.752 C 50.697 159.588,69.690 127.966,98.200 105.565 C 109.215 96.910,114.578 93.823,115.335 95.700 C 115.446 95.975,115.551 95.655,115.568 94.989 C 115.616 93.157,116.433 92.310,120.280 90.104 C 127.786 85.799,135.071 82.509,138.238 81.994 C 140.867 81.566,148.027 78.988,151.512 77.215 C 155.542 75.164,164.429 72.891,175.671 71.035 C 184.328 69.606,185.117 69.746,184.079 72.532 L 183.606 73.800 184.624 72.510 C 186.083 70.661,187.802 70.334,197.600 70.039 C 207.176 69.750,207.987 69.837,208.694 71.228 L 209.188 72.200 209.194 71.123 C 209.208 68.570,213.376 68.266,226.952 69.827 M47.656 313.722 C 48.113 314.594,48.110 314.595,47.258 313.838 C 46.786 313.419,46.400 312.913,46.400 312.714 C 46.400 312.151,47.146 312.750,47.656 313.722 " stroke="none" fill="#da5c34" fill-rule="evenodd"></path><path id="path4" d="M209.119 36.047 C 209.661 36.528,211.412 36.763,211.955 36.428 C 212.317 36.204,211.881 36.039,210.670 35.943 C 209.662 35.863,208.964 35.910,209.119 36.047 M196.465 36.412 C 196.884 36.657,197.475 36.662,198.065 36.426 C 198.883 36.098,198.799 36.049,197.400 36.038 C 196.180 36.027,195.958 36.116,196.465 36.412 M215.600 36.155 C 215.600 36.483,218.046 36.649,218.241 36.333 C 218.355 36.150,217.807 36.000,217.024 36.000 C 216.241 36.000,215.600 36.070,215.600 36.155 M228.000 37.200 C 228.000 37.420,228.495 37.587,229.100 37.572 C 230.075 37.547,230.109 37.505,229.400 37.200 C 228.307 36.731,228.000 36.731,228.000 37.200 M234.498 38.011 C 235.341 38.526,237.865 38.894,237.358 38.427 C 237.161 38.245,236.280 37.982,235.400 37.840 C 234.174 37.644,233.963 37.683,234.498 38.011 M238.000 38.555 C 238.000 38.640,238.530 38.787,239.179 38.882 C 239.827 38.977,240.267 38.908,240.155 38.728 C 239.957 38.407,238.000 38.250,238.000 38.555 M168.400 39.202 C 167.938 39.502,168.047 39.573,168.871 39.511 C 169.460 39.467,169.855 39.288,169.748 39.115 C 169.492 38.702,169.134 38.725,168.400 39.202 M241.000 39.200 C 241.136 39.420,241.912 39.582,242.724 39.560 C 244.050 39.524,244.098 39.488,243.200 39.200 C 241.755 38.737,240.714 38.737,241.000 39.200 M164.800 40.000 C 164.800 40.220,165.059 40.400,165.376 40.400 C 165.693 40.400,166.064 40.220,166.200 40.000 C 166.336 39.780,166.077 39.600,165.624 39.600 C 165.171 39.600,164.800 39.780,164.800 40.000 M244.533 39.857 C 244.715 40.045,245.489 40.223,246.252 40.252 C 248.041 40.322,247.703 39.979,245.726 39.718 C 244.887 39.607,244.350 39.670,244.533 39.857 M152.000 42.800 C 152.000 43.301,152.424 43.301,153.200 42.800 C 153.685 42.486,153.628 42.411,152.900 42.406 C 152.405 42.403,152.000 42.580,152.000 42.800 M294.510 55.767 C 294.822 56.080,295.312 57.205,295.599 58.267 C 296.290 60.835,297.224 61.791,300.800 63.595 C 303.762 65.090,310.636 69.049,314.681 71.589 C 317.089 73.102,318.255 73.031,319.272 71.310 C 321.429 67.658,324.533 65.200,326.987 65.200 C 330.185 65.200,341.898 69.042,347.208 71.832 C 351.245 73.953,362.137 84.673,362.802 87.179 C 363.290 89.020,364.392 99.079,364.185 99.795 C 364.120 100.018,363.954 100.713,363.816 101.339 C 363.677 101.970,362.323 103.791,360.783 105.418 C 357.144 109.262,356.946 108.291,363.000 116.267 C 364.980 118.875,367.769 122.762,369.198 124.906 C 371.949 129.033,372.338 129.313,375.900 129.727 C 378.127 129.985,378.052 129.582,375.699 128.640 C 373.154 127.621,372.689 127.168,370.113 123.204 C 367.751 119.570,362.999 113.052,361.132 110.886 C 359.622 109.133,359.658 108.975,362.194 106.200 C 365.925 102.119,366.317 99.579,364.768 89.559 C 363.633 82.218,352.648 71.918,341.396 67.642 C 327.032 62.184,324.092 62.374,318.856 69.100 C 317.191 71.239,317.661 71.323,311.896 67.855 C 309.203 66.236,305.091 63.894,302.758 62.651 C 298.198 60.222,297.728 59.832,296.458 57.432 C 295.660 55.924,294.967 55.219,294.271 55.206 C 294.091 55.203,294.198 55.455,294.510 55.767 M53.400 58.160 C 43.844 61.182,39.231 68.550,30.668 94.468 C 25.781 109.264,28.919 115.200,41.630 115.200 C 45.769 115.200,46.269 115.671,44.574 117.970 C 42.372 120.958,38.381 127.173,35.822 131.600 C 33.164 136.198,31.924 137.636,28.841 139.696 C 27.917 140.314,27.211 141.100,27.225 141.496 C 27.247 142.099,27.298 142.085,27.580 141.400 C 27.789 140.892,28.853 140.266,30.493 139.686 C 33.343 138.678,34.556 137.597,36.197 134.600 C 38.037 131.239,40.784 126.795,43.558 122.691 C 45.011 120.541,46.547 118.220,46.971 117.532 L 47.743 116.282 46.671 115.359 C 45.279 114.162,43.200 113.605,40.115 113.602 C 33.336 113.596,29.046 109.298,29.799 103.269 C 30.068 101.116,33.628 90.194,37.028 81.090 C 43.570 63.572,50.150 57.909,62.476 59.187 C 72.838 60.262,79.200 66.507,79.200 75.605 C 79.200 78.194,80.609 82.000,81.568 82.000 C 82.612 82.000,101.705 68.147,103.295 66.236 C 104.069 65.306,105.731 61.197,105.448 60.914 C 105.348 60.815,104.622 61.742,103.833 62.975 C 103.044 64.209,101.561 65.798,100.535 66.509 C 99.510 67.219,96.482 69.420,93.807 71.400 C 81.599 80.434,81.456 80.494,81.002 76.800 C 79.974 68.424,78.885 65.871,74.969 62.654 C 69.506 58.167,59.783 56.141,53.400 58.160 M210.100 69.388 C 208.370 70.651,209.206 74.267,212.608 80.236 C 214.519 83.589,215.450 85.909,217.812 93.200 C 218.631 95.730,219.843 98.878,220.504 100.195 C 222.445 104.059,223.493 107.197,224.382 111.804 C 228.390 132.572,243.755 139.951,258.327 128.106 C 261.306 125.684,275.758 109.861,279.315 105.126 C 281.185 102.637,283.370 99.880,284.169 99.000 C 288.869 93.829,290.276 91.028,288.938 89.509 C 287.122 87.447,270.481 80.236,266.098 79.613 C 264.614 79.401,262.320 78.856,261.000 78.400 C 257.592 77.224,248.940 74.876,243.971 73.778 C 241.645 73.265,238.799 72.473,237.647 72.018 C 232.047 69.811,212.125 67.909,210.100 69.388 M174.600 71.189 C 163.148 73.202,155.447 75.212,151.512 77.215 C 148.027 78.988,140.867 81.566,138.238 81.994 C 133.919 82.697,117.729 90.739,116.180 92.950 C 113.554 96.699,122.229 114.318,129.457 119.916 C 148.561 134.711,159.779 130.491,166.980 105.800 C 169.050 98.700,170.446 95.533,173.851 90.200 C 176.529 86.005,181.128 78.166,183.173 74.309 C 185.597 69.738,184.702 69.412,174.600 71.189 M223.600 71.242 C 237.436 72.471,237.404 72.450,240.817 82.573 C 241.890 85.754,243.430 89.672,244.240 91.279 C 245.049 92.885,246.151 95.370,246.690 96.800 C 247.793 99.731,248.239 100.400,249.090 100.400 C 249.984 100.400,254.830 95.168,258.698 90.026 C 266.453 79.720,265.735 79.826,280.384 86.823 C 289.365 91.113,289.313 90.955,283.803 97.200 C 282.541 98.630,279.934 101.870,278.010 104.400 C 268.337 117.116,255.559 129.371,250.092 131.173 C 238.396 135.029,229.563 127.815,225.830 111.357 C 225.076 108.033,223.895 104.073,223.204 102.557 C 221.079 97.888,219.739 94.409,218.020 89.102 C 217.112 86.298,215.363 82.094,214.133 79.760 C 208.866 69.765,208.696 69.919,223.600 71.242 M182.000 72.721 C 182.000 73.504,176.736 82.854,172.499 89.600 C 168.905 95.321,167.596 98.313,165.416 105.793 C 159.055 127.616,151.048 131.684,134.552 121.474 C 126.492 116.485,121.015 108.847,117.949 98.321 C 116.724 94.117,116.812 93.984,123.049 90.544 C 136.767 82.980,138.031 82.864,139.786 89.000 C 141.874 96.301,142.928 96.848,144.794 91.600 C 148.582 80.949,150.926 78.500,159.490 76.243 C 172.704 72.762,182.000 71.307,182.000 72.721 M382.412 139.600 C 382.412 140.290,383.080 141.470,383.311 141.188 C 383.396 141.085,383.229 140.550,382.939 140.000 C 382.648 139.449,382.412 139.269,382.412 139.600 M26.044 143.464 C 25.414 144.846,25.726 145.078,26.541 143.833 C 26.899 143.288,27.039 142.748,26.854 142.633 C 26.669 142.519,26.304 142.893,26.044 143.464 M24.090 148.047 C 23.374 149.628,22.856 150.990,22.939 151.072 C 23.166 151.299,25.650 145.950,25.511 145.534 C 25.445 145.334,24.805 146.465,24.090 148.047 M133.000 149.975 C 122.198 151.825,117.497 167.073,125.464 174.416 C 131.974 180.417,142.445 179.243,146.995 172.002 C 153.584 161.517,144.950 147.927,133.000 149.975 M139.744 152.013 C 148.381 155.245,150.736 166.607,144.167 173.356 C 139.627 178.021,131.761 178.184,126.792 173.717 C 116.540 164.499,126.866 147.195,139.744 152.013 M266.537 154.403 C 258.453 156.069,253.445 165.752,256.967 172.909 C 261.975 183.088,277.070 183.606,281.679 173.757 C 286.367 163.739,277.324 152.180,266.537 154.403 M21.250 155.134 C 20.668 156.191,20.775 156.510,21.551 156.030 C 21.841 155.851,22.008 155.366,21.922 154.952 C 21.780 154.270,21.717 154.287,21.250 155.134 M273.932 156.439 C 283.375 160.495,284.298 173.671,275.464 178.306 C 271.064 180.614,264.317 179.490,260.668 175.841 C 251.637 166.811,262.178 151.392,273.932 156.439 M19.855 159.055 C 19.476 159.849,19.253 160.586,19.359 160.693 C 19.466 160.799,19.836 160.209,20.182 159.382 C 20.998 157.429,20.749 157.180,19.855 159.055 M390.428 158.676 C 390.413 159.158,390.580 159.664,390.800 159.800 C 391.273 160.092,391.273 159.701,390.800 158.600 C 390.469 157.829,390.455 157.831,390.428 158.676 M13.043 185.433 C 12.735 186.235,12.725 187.809,13.029 187.504 C 13.319 187.214,13.710 184.800,13.467 184.800 C 13.367 184.800,13.176 185.085,13.043 185.433 M209.567 192.951 C 209.475 193.033,205.440 193.207,200.600 193.336 C 195.598 193.469,190.246 193.839,188.200 194.192 C 186.220 194.533,182.530 195.080,180.000 195.407 C 168.380 196.908,164.428 199.324,161.964 206.433 C 160.736 209.976,160.610 217.885,161.749 219.974 C 162.161 220.730,162.928 222.980,163.454 224.974 C 166.528 236.632,171.690 240.411,189.725 244.206 C 192.104 244.707,194.161 245.227,194.296 245.363 C 194.591 245.658,194.490 250.685,194.169 251.698 C 193.213 254.709,184.005 254.186,178.406 250.804 C 170.662 246.125,166.328 253.421,173.706 258.716 C 179.294 262.726,190.942 264.049,196.200 261.270 C 199.099 259.738,199.357 259.724,200.896 261.019 C 210.573 269.162,235.600 263.951,235.600 253.793 C 235.600 248.966,230.855 248.038,226.960 252.103 C 223.946 255.249,222.315 255.705,214.694 255.536 L 208.566 255.400 206.272 254.009 C 203.542 252.353,202.879 250.882,203.452 247.745 C 203.851 245.562,203.185 245.840,210.405 244.851 C 213.614 244.412,224.822 241.342,228.293 239.951 C 232.519 238.258,235.146 235.155,237.144 229.496 C 237.808 227.614,238.882 225.112,239.531 223.937 C 240.900 221.459,243.603 209.886,243.601 206.515 C 243.597 199.959,239.476 196.068,231.000 194.617 C 229.020 194.278,226.230 193.735,224.800 193.409 C 222.471 192.878,210.060 192.505,209.567 192.951 M11.892 194.770 C 11.751 195.310,11.856 195.477,12.245 195.327 C 12.550 195.210,12.800 194.864,12.800 194.557 C 12.800 193.726,12.124 193.884,11.892 194.770 M226.600 194.916 C 227.920 195.266,230.383 195.819,232.074 196.145 C 238.560 197.396,242.400 201.297,242.400 206.635 C 242.400 209.276,239.538 221.721,238.407 224.000 C 237.806 225.210,237.002 227.275,236.620 228.588 C 235.246 233.319,232.829 236.594,229.315 238.489 C 225.697 240.440,213.008 243.859,207.502 244.367 C 203.042 244.779,202.800 245.021,202.800 249.076 C 202.800 251.414,202.952 252.152,203.559 252.759 C 208.409 257.609,222.402 257.722,226.805 252.948 C 231.126 248.262,236.266 249.757,234.782 255.268 C 232.407 264.089,210.765 267.849,201.899 260.982 C 199.139 258.844,199.492 258.866,196.233 260.626 C 190.650 263.641,178.048 261.978,173.019 257.563 C 167.482 252.702,171.627 247.349,177.963 251.178 C 181.467 253.295,184.069 253.989,188.520 253.995 C 194.079 254.003,195.200 252.958,195.200 247.769 C 195.200 244.678,194.775 244.189,191.763 243.813 C 188.435 243.397,176.194 239.755,173.865 238.488 C 169.240 235.972,166.515 232.334,164.811 226.400 C 164.338 224.750,163.619 222.320,163.213 221.000 C 159.070 207.499,164.845 198.539,178.800 196.816 C 180.890 196.558,184.760 195.991,187.400 195.555 C 190.558 195.035,195.074 194.690,200.600 194.548 C 205.220 194.428,209.090 194.241,209.200 194.130 C 209.683 193.646,224.295 194.306,226.600 194.916 M398.610 196.682 C 398.717 197.937,399.010 199.152,399.261 199.382 C 399.594 199.687,399.648 199.602,399.459 199.067 C 399.316 198.664,399.200 197.449,399.200 196.367 C 399.200 195.285,399.024 194.400,398.808 194.400 C 398.575 194.400,398.495 195.326,398.610 196.682 M50.664 198.018 C 47.064 198.420,44.833 199.364,44.086 200.800 C 43.148 202.604,43.636 222.460,44.681 225.000 C 45.618 227.279,46.055 230.463,46.188 235.975 C 46.325 241.682,50.951 257.220,52.925 258.602 C 56.960 261.429,77.255 252.711,85.387 244.658 C 97.777 232.388,96.561 207.554,83.222 200.444 C 78.609 197.985,78.066 197.904,65.400 197.780 C 59.020 197.718,52.389 197.825,50.664 198.018 M76.534 199.793 C 91.687 203.004,97.492 223.245,87.824 239.161 C 83.219 246.742,64.118 257.649,55.545 257.594 C 53.601 257.581,52.172 254.391,49.388 243.846 C 47.280 235.864,47.288 235.842,52.954 234.479 C 63.189 232.018,71.970 224.825,67.600 222.483 C 66.415 221.848,56.380 222.069,50.429 222.861 C 45.965 223.455,45.914 223.418,45.538 219.290 C 44.661 209.660,45.212 201.250,46.773 200.414 C 49.062 199.189,71.477 198.722,76.534 199.793 M11.056 202.884 C 10.921 203.388,10.814 204.520,10.818 205.400 C 10.826 207.508,11.519 206.421,11.657 204.083 C 11.768 202.198,11.424 201.511,11.056 202.884 M332.740 203.004 C 314.584 206.416,305.656 220.456,312.632 234.628 C 314.404 238.228,322.802 247.850,326.324 250.317 C 333.167 255.109,354.294 260.430,357.517 258.173 C 359.758 256.603,364.442 240.716,364.584 234.200 C 364.633 231.943,364.907 230.003,365.320 229.000 C 367.123 224.609,367.528 207.691,365.876 205.770 C 363.530 203.044,342.067 201.252,332.740 203.004 M359.251 204.976 C 361.149 205.357,363.264 206.011,363.951 206.429 L 365.200 207.188 365.193 213.294 C 365.175 228.493,364.689 229.348,356.870 227.922 C 351.256 226.898,340.571 226.694,339.986 227.600 C 338.677 229.630,352.414 234.400,359.570 234.400 C 360.490 234.400,361.491 234.707,362.053 235.163 L 362.996 235.926 362.303 239.263 C 361.384 243.696,358.584 252.948,357.482 255.200 C 356.067 258.088,352.696 257.890,339.625 254.151 C 328.741 251.037,323.793 247.496,316.363 237.508 C 306.189 223.831,314.070 208.236,333.000 204.587 C 337.153 203.787,354.620 204.045,359.251 204.976 M399.206 205.900 C 399.209 206.285,399.387 206.870,399.600 207.200 C 399.894 207.655,399.989 207.486,399.994 206.500 C 399.997 205.785,399.820 205.200,399.600 205.200 C 399.380 205.200,399.203 205.515,399.206 205.900 M10.937 212.200 C 10.939 213.960,11.009 214.630,11.093 213.689 C 11.178 212.749,11.177 211.309,11.091 210.489 C 11.005 209.670,10.936 210.440,10.937 212.200 M195.000 212.645 C 194.340 212.743,191.280 213.189,188.200 213.637 C 180.031 214.824,180.353 214.571,181.776 218.684 C 183.182 222.748,183.200 222.779,184.548 223.480 C 192.702 227.716,215.295 227.560,218.367 223.246 C 219.876 221.127,222.429 215.406,222.314 214.400 C 222.204 213.434,222.072 213.391,218.400 213.126 C 213.401 212.765,196.532 212.419,195.000 212.645 M10.806 218.900 C 10.809 219.395,10.987 220.070,11.200 220.400 C 11.488 220.846,11.589 220.616,11.594 219.500 C 11.597 218.675,11.420 218.000,11.200 218.000 C 10.980 218.000,10.803 218.405,10.806 218.900 M11.200 222.224 C 11.200 222.787,11.363 223.146,11.562 223.023 C 11.762 222.900,11.831 222.439,11.716 222.000 C 11.428 220.899,11.200 220.998,11.200 222.224 M11.634 227.400 C 11.622 227.840,11.787 228.470,12.000 228.800 C 12.514 229.595,12.514 228.596,12.000 227.400 L 11.656 226.600 11.634 227.400 M12.012 230.600 C 12.012 231.040,12.187 231.670,12.400 232.000 C 12.721 232.497,12.788 232.462,12.788 231.800 C 12.788 231.360,12.613 230.730,12.400 230.400 C 12.079 229.903,12.012 229.938,12.012 230.600 M12.806 236.676 C 12.809 237.074,12.987 237.670,13.200 238.000 C 13.503 238.469,13.589 238.366,13.594 237.524 C 13.597 236.932,13.420 236.336,13.200 236.200 C 12.980 236.064,12.803 236.278,12.806 236.676 M393.300 254.665 C 393.025 254.776,392.800 255.312,392.800 255.857 C 392.800 257.087,393.437 256.767,393.697 255.406 C 393.803 254.853,393.869 254.414,393.845 254.432 C 393.820 254.449,393.575 254.554,393.300 254.665 M77.000 259.835 C 73.216 260.111,69.390 260.870,64.800 262.257 C 56.441 264.783,56.214 264.882,56.076 266.076 C 55.844 268.078,63.889 282.169,67.806 286.622 C 68.784 287.735,69.993 289.403,70.492 290.330 C 73.376 295.685,85.161 308.013,87.388 308.006 C 89.280 307.999,96.429 303.396,100.686 299.442 C 111.008 289.858,108.696 272.987,95.798 263.784 C 90.982 260.347,85.575 259.212,77.000 259.835 M342.200 261.404 C 340.880 261.719,336.812 262.158,333.160 262.380 C 318.312 263.282,307.375 267.982,301.726 275.887 C 295.642 284.400,297.146 298.362,304.992 306.208 C 309.547 310.763,317.043 313.551,320.236 311.876 C 323.374 310.231,338.421 293.606,340.237 289.778 C 340.605 289.003,341.705 287.480,342.681 286.395 C 346.985 281.607,355.931 265.324,355.247 263.523 C 354.376 261.233,347.561 260.126,342.200 261.404 M89.334 262.345 C 101.679 266.418,109.030 281.901,103.756 292.719 C 101.634 297.071,90.555 306.400,87.509 306.400 C 86.427 306.400,79.961 299.752,75.106 293.647 C 72.342 290.172,72.218 289.132,74.400 287.720 C 76.281 286.503,76.800 286.041,76.800 285.584 C 76.800 285.089,74.597 285.094,72.798 285.594 C 69.597 286.483,68.308 285.268,63.070 276.422 C 57.878 267.653,57.478 266.448,59.500 265.679 C 70.320 261.567,82.762 260.177,89.334 262.345 M352.000 263.352 C 353.651 264.104,353.431 265.295,350.679 270.511 C 343.229 284.631,341.367 286.607,335.079 287.069 C 329.648 287.468,329.092 288.605,334.256 288.753 C 336.840 288.827,337.816 289.837,336.909 291.498 C 335.715 293.682,329.393 300.877,324.149 306.018 L 319.173 310.897 317.002 310.717 C 309.902 310.128,302.354 302.714,300.203 294.216 C 296.018 277.680,309.300 265.476,333.086 264.005 C 336.434 263.798,340.304 263.445,341.686 263.221 C 343.069 262.997,344.740 262.749,345.400 262.671 C 347.200 262.458,350.867 262.836,352.000 263.352 M390.491 264.100 C 389.810 265.984,389.904 266.494,390.626 264.830 C 390.953 264.077,391.166 263.299,391.101 263.102 C 391.035 262.905,390.760 263.354,390.491 264.100 M389.492 266.642 C 389.331 266.802,389.200 267.209,389.200 267.547 C 389.200 267.997,389.318 268.042,389.645 267.715 C 389.890 267.470,390.021 267.063,389.937 266.810 C 389.852 266.557,389.652 266.481,389.492 266.642 M25.111 276.623 C 24.872 276.862,26.201 280.000,26.541 280.000 C 26.610 280.000,26.667 279.730,26.667 279.400 C 26.667 279.070,26.522 278.800,26.345 278.800 C 26.168 278.800,25.880 278.248,25.705 277.573 C 25.530 276.898,25.263 276.471,25.111 276.623 M385.129 277.020 C 385.009 277.229,384.795 277.940,384.654 278.600 L 384.397 279.800 385.024 278.676 C 385.369 278.058,385.582 277.347,385.499 277.096 C 385.411 276.832,385.254 276.800,385.129 277.020 M378.700 290.214 C 378.315 290.729,378.000 291.327,378.000 291.542 C 378.000 291.757,377.816 292.025,377.590 292.137 C 377.365 292.249,377.408 292.294,377.686 292.238 C 378.199 292.134,379.820 289.682,379.548 289.420 C 379.467 289.342,379.085 289.700,378.700 290.214 M33.656 294.017 C 34.119 294.907,34.587 295.546,34.695 295.438 C 34.891 295.243,33.280 292.400,32.974 292.400 C 32.885 292.400,33.192 293.128,33.656 294.017 M372.642 299.835 C 372.320 300.674,372.335 300.800,372.757 300.800 C 373.257 300.800,373.638 299.671,373.224 299.415 C 373.037 299.299,372.775 299.488,372.642 299.835 M368.000 307.169 C 368.000 307.372,367.534 308.092,366.964 308.769 C 366.395 309.446,366.080 309.996,366.264 309.991 C 366.767 309.979,368.920 306.800,368.426 306.800 C 368.192 306.800,368.000 306.966,368.000 307.169 M46.400 312.800 C 47.717 314.463,48.326 314.912,47.621 313.700 C 47.026 312.678,45.714 311.200,45.402 311.200 C 45.254 311.200,45.703 311.920,46.400 312.800 M49.073 315.826 C 50.286 317.872,51.169 318.964,51.413 318.720 C 51.540 318.593,51.200 318.010,50.657 317.424 C 50.115 316.839,49.373 315.963,49.009 315.480 C 48.547 314.866,48.566 314.971,49.073 315.826 M58.261 326.538 C 58.887 327.274,59.466 327.822,59.547 327.758 C 59.769 327.579,57.850 325.248,57.461 325.222 C 57.274 325.210,57.634 325.802,58.261 326.538 M350.600 327.910 C 350.380 328.073,349.752 328.745,349.204 329.403 C 348.310 330.477,348.361 330.458,349.704 329.222 C 351.059 327.973,351.391 327.588,351.100 327.606 C 351.045 327.609,350.820 327.746,350.600 327.910 M346.632 331.913 L 345.864 333.000 346.932 332.030 C 348.054 331.011,348.193 330.792,347.700 330.813 C 347.535 330.819,347.054 331.314,346.632 331.913 M66.200 334.400 C 66.598 334.840,67.076 335.200,67.262 335.200 C 67.448 335.200,67.240 334.840,66.800 334.400 C 66.360 333.960,65.882 333.600,65.738 333.600 C 65.594 333.600,65.802 333.960,66.200 334.400 M71.200 338.700 C 71.200 338.869,71.560 339.232,72.000 339.507 C 72.440 339.782,72.800 339.869,72.800 339.700 C 72.800 339.531,72.440 339.168,72.000 338.893 C 71.560 338.618,71.200 338.531,71.200 338.700 M75.289 342.100 C 77.339 343.974,78.000 344.509,78.000 344.290 C 78.000 343.932,75.464 341.604,75.071 341.602 C 74.891 341.601,74.989 341.825,75.289 342.100 M329.409 346.390 C 329.016 346.824,328.358 347.286,327.947 347.417 C 327.536 347.547,327.200 347.833,327.200 348.052 C 327.200 348.271,328.010 347.868,329.000 347.157 C 329.990 346.446,330.800 345.805,330.800 345.732 C 330.800 345.338,330.032 345.702,329.409 346.390 M86.000 349.767 C 86.000 350.188,87.205 351.328,87.421 351.112 C 87.522 351.011,87.244 350.602,86.802 350.202 C 86.361 349.803,86.000 349.607,86.000 349.767 M92.767 354.537 C 93.340 355.250,94.800 356.187,94.800 355.841 C 94.800 355.739,94.215 355.244,93.500 354.743 C 92.578 354.096,92.365 354.036,92.767 354.537 M294.051 367.241 C 292.649 367.897,291.584 368.517,291.684 368.617 C 291.784 368.718,293.111 368.181,294.633 367.424 C 298.029 365.737,297.570 365.592,294.051 367.241 M115.400 367.118 C 115.813 367.539,118.800 368.863,118.800 368.626 C 118.800 368.359,116.975 367.308,116.000 367.013 C 115.322 366.808,115.129 366.842,115.400 367.118 M282.426 372.169 C 282.039 372.635,282.102 372.698,282.777 372.522 C 283.230 372.404,283.600 372.148,283.600 371.953 C 283.600 371.414,282.954 371.532,282.426 372.169 M280.667 372.667 C 280.181 373.153,280.390 373.579,281.000 373.345 C 281.330 373.218,281.600 372.954,281.600 372.757 C 281.600 372.338,281.049 372.284,280.667 372.667 M244.600 383.200 C 244.308 383.673,244.699 383.673,245.800 383.200 C 246.571 382.869,246.569 382.855,245.724 382.828 C 245.242 382.813,244.736 382.980,244.600 383.200 M169.000 384.000 C 170.105 384.475,170.800 384.475,170.800 384.000 C 170.800 383.780,170.215 383.613,169.500 383.628 C 168.411 383.652,168.330 383.712,169.000 384.000 M186.800 386.000 C 185.602 386.253,185.736 386.295,187.737 386.294 C 189.177 386.293,189.868 386.162,189.537 385.953 C 188.942 385.575,188.806 385.578,186.800 386.000 M222.797 386.011 C 222.370 386.280,222.703 386.389,223.967 386.394 C 225.867 386.400,225.988 386.253,224.397 385.873 C 223.845 385.741,223.125 385.803,222.797 386.011 M194.800 386.800 C 194.800 387.020,195.160 387.200,195.600 387.200 C 196.040 387.200,196.400 387.020,196.400 386.800 C 196.400 386.580,196.040 386.400,195.600 386.400 C 195.160 386.400,194.800 386.580,194.800 386.800 M198.608 386.788 C 198.446 387.049,199.047 387.200,200.243 387.200 C 202.410 387.200,202.438 387.021,200.331 386.641 C 199.461 386.484,198.759 386.544,198.608 386.788 M212.400 386.800 C 211.955 387.088,212.193 387.189,213.324 387.194 C 214.239 387.198,214.748 387.040,214.600 386.800 C 214.288 386.294,213.182 386.294,212.400 386.800 M215.600 386.800 C 215.600 387.020,215.960 387.200,216.400 387.200 C 216.840 387.200,217.200 387.020,217.200 386.800 C 217.200 386.580,216.840 386.400,216.400 386.400 C 215.960 386.400,215.600 386.580,215.600 386.800 " stroke="none" fill="#843c25" fill-rule="evenodd"></path></g></svg>